<svg width="32" height="50" viewBox="0 0 32 50" fill="none" xmlns="http://www.w3.org/2000/svg">
<mask id="path-1-inside-1_1_2662" fill="white">
<path d="M21.304 10.3853C19.0267 10.692 17.2307 12.392 16.7654 14.6826L16.7014 14.9986L16.2414 15.0893C14.6107 15.4093 13.248 16.604 12.7787 18.124C12.4027 19.344 13.104 20.5893 14.3547 20.9226C14.5547 20.976 15.1787 20.9906 17.352 20.9906C19.9427 20.9906 20.1134 20.9853 20.4067 20.8946C20.8084 20.7716 21.1677 20.5388 21.4441 20.2224C21.7205 19.9059 21.9029 19.5186 21.9707 19.104C22.1454 18.0773 21.34 16.6133 20.16 15.812C19.6229 15.446 19.0153 15.1962 18.376 15.0786C18.2711 15.0639 18.1676 15.0403 18.0667 15.008C18.0347 14.9746 18.2027 14.3826 18.332 14.076C18.6934 13.2146 19.464 12.4373 20.364 12.02C20.9707 11.74 21.676 11.6333 22.4387 11.7053C23.1109 11.7752 23.7538 12.0166 24.306 12.4062C24.8581 12.7959 25.3009 13.3208 25.592 13.9306C25.968 14.712 25.9414 14.304 25.9707 19.7226C25.996 24.328 26.0027 24.596 26.0867 24.7253C26.2694 25.0026 26.8627 25.0893 27.1054 24.8733C27.348 24.6573 27.3427 24.7746 27.3414 19.9293C27.3414 15.008 27.336 14.8906 27.0707 14.0493C26.504 12.2533 24.9374 10.8333 23.1027 10.4546C22.5087 10.3535 21.9041 10.3302 21.304 10.3853ZM18.2574 16.4213C18.7241 16.5275 19.162 16.7346 19.5402 17.0281C19.9185 17.3215 20.2278 17.6942 20.4467 18.12C20.636 18.5093 20.6547 18.576 20.6347 18.836C20.6315 18.9942 20.5829 19.1481 20.4947 19.2795C20.4066 19.4109 20.2825 19.5143 20.1374 19.5773C19.948 19.6626 19.7694 19.6693 17.364 19.6706C15.5747 19.6706 14.7414 19.6546 14.6267 19.616C14.3872 19.5162 14.1905 19.3354 14.0707 19.1053C13.9627 18.8773 13.98 18.664 14.136 18.2986C14.337 17.8251 14.6491 17.4069 15.046 17.0797C15.4429 16.7524 15.9129 16.5257 16.416 16.4186C16.8267 16.328 17.82 16.3306 18.2574 16.4213ZM9.71737 24.3453C8.85337 24.424 8.11337 24.852 7.68937 25.5213C7.36271 26.0346 7.34671 26.1653 7.34671 28.308C7.34671 30.4546 7.36671 30.6386 7.66937 31.2986C7.94305 31.8857 8.35256 32.3991 8.86403 32.7965C9.3755 33.1939 9.97423 33.4639 10.6107 33.584C11.1174 33.6813 13.5494 33.6813 14.056 33.584C14.6925 33.4639 15.2913 33.1939 15.8027 32.7965C16.3142 32.3991 16.7237 31.8857 16.9974 31.2986C17.3 30.6386 17.32 30.4546 17.32 28.308C17.32 26.5293 17.312 26.3546 17.224 26.068C16.988 25.3053 16.3627 24.708 15.5107 24.4333C15.2694 24.356 14.9787 24.3466 12.5774 24.3373C11.624 24.3294 10.6706 24.3321 9.71737 24.3453ZM15.44 25.8573C15.572 25.9386 15.7454 26.1 15.828 26.2146L15.976 26.4266L15.9907 28.1946C16.0014 29.3893 15.988 30.0573 15.9494 30.256C15.7867 31.1053 15.0494 31.892 14.1334 32.192C13.788 32.304 13.724 32.3093 12.3334 32.3093C10.9427 32.3093 10.8787 32.304 10.5334 32.192C9.63071 31.896 8.89604 31.1253 8.72137 30.2893C8.65337 29.964 8.64804 26.7093 8.71471 26.4666C8.78404 26.216 9.02271 25.9546 9.31471 25.8093L9.57071 25.6813L12.3867 25.6946L15.2014 25.7093L15.44 25.8573ZM3.16671 26.372C2.70565 26.4485 2.28486 26.681 1.97471 27.0306C1.82528 27.1874 1.69215 27.359 1.57737 27.5426C1.42793 27.857 1.34487 28.1988 1.33337 28.5466C1.33337 28.8746 1.89071 32.4813 2.02404 33.0173C2.27604 34.0293 2.67737 34.8586 3.31471 35.6826C3.80937 36.32 4.60404 37.024 5.23204 37.38C5.39204 37.4706 5.47604 37.5466 5.45471 37.5813L5.12004 38.1026C4.72271 38.7146 4.64804 38.8666 4.64804 39.0586C4.64804 39.488 5.32671 39.8333 5.68004 39.5866C5.74271 39.5413 6.00537 39.184 6.26137 38.792L6.73604 38.0653C6.87826 38.0831 7.01826 38.1106 7.15604 38.148C7.97604 38.34 8.30137 38.3466 15.996 38.3466C23.6894 38.3466 24.0507 38.3386 24.8427 38.1493C25.0467 38.1013 25.2254 38.0773 25.24 38.096L25.72 38.8C25.9707 39.168 26.232 39.5133 26.3014 39.568C26.6734 39.8613 27.3574 39.5053 27.3507 39.0213C27.3494 38.8586 27.2774 38.72 26.9294 38.2013C26.7829 37.9894 26.6433 37.7728 26.5107 37.552C26.5107 37.5373 26.6267 37.46 26.768 37.38C27.396 37.024 28.1907 36.32 28.6854 35.6826C29.292 34.9173 29.7254 34.0293 29.9587 33.0813C30.0947 32.56 30.6667 28.8853 30.6667 28.5333C30.6667 28.2493 30.5574 27.808 30.4227 27.5426C30.3087 27.3584 30.1755 27.1868 30.0254 27.0306C29.697 26.66 29.2428 26.4243 28.7507 26.3693C28.2907 26.3093 19.8054 26.3066 19.5494 26.3666C19.4315 26.3985 19.3225 26.4568 19.2307 26.5373C19.1187 26.6493 19.104 26.704 19.104 27.0013C19.104 27.2906 19.1214 27.356 19.2227 27.4653C19.3054 27.5453 19.4067 27.6053 19.516 27.64C19.6267 27.6706 21.36 27.688 24.1814 27.688C29.1494 27.6893 28.876 27.672 29.124 28.0013C29.3747 28.3333 29.3734 28.3626 29.028 30.6066C28.6907 32.7946 28.592 33.2106 28.244 33.9053C27.8974 34.5933 27.4787 35.1333 26.888 35.648C25.9814 36.4386 24.9614 36.8666 23.72 36.976C22.9654 37.0426 9.03471 37.0426 8.27604 36.976C7.58804 36.9234 6.91622 36.7411 6.29604 36.4386C5.62211 36.1031 5.02197 35.6364 4.53085 35.0658C4.03973 34.4952 3.66751 33.8323 3.43604 33.116C3.23737 32.508 2.63471 28.6346 2.69737 28.3653C2.75366 28.1388 2.88947 27.94 3.08004 27.8053C3.20137 27.7226 3.34804 27.7106 4.51337 27.6893C5.66271 27.6666 5.82671 27.6546 5.94804 27.5746C6.30404 27.3413 6.30404 26.668 5.94804 26.4333C5.82671 26.3546 5.68404 26.344 4.63604 26.336C3.98937 26.332 3.32804 26.348 3.16671 26.372Z"/>
</mask>
<path d="M21.304 10.3853C19.0267 10.692 17.2307 12.392 16.7654 14.6826L16.7014 14.9986L16.2414 15.0893C14.6107 15.4093 13.248 16.604 12.7787 18.124C12.4027 19.344 13.104 20.5893 14.3547 20.9226C14.5547 20.976 15.1787 20.9906 17.352 20.9906C19.9427 20.9906 20.1134 20.9853 20.4067 20.8946C20.8084 20.7716 21.1677 20.5388 21.4441 20.2224C21.7205 19.9059 21.9029 19.5186 21.9707 19.104C22.1454 18.0773 21.34 16.6133 20.16 15.812C19.6229 15.446 19.0153 15.1962 18.376 15.0786C18.2711 15.0639 18.1676 15.0403 18.0667 15.008C18.0347 14.9746 18.2027 14.3826 18.332 14.076C18.6934 13.2146 19.464 12.4373 20.364 12.02C20.9707 11.74 21.676 11.6333 22.4387 11.7053C23.1109 11.7752 23.7538 12.0166 24.306 12.4062C24.8581 12.7959 25.3009 13.3208 25.592 13.9306C25.968 14.712 25.9414 14.304 25.9707 19.7226C25.996 24.328 26.0027 24.596 26.0867 24.7253C26.2694 25.0026 26.8627 25.0893 27.1054 24.8733C27.348 24.6573 27.3427 24.7746 27.3414 19.9293C27.3414 15.008 27.336 14.8906 27.0707 14.0493C26.504 12.2533 24.9374 10.8333 23.1027 10.4546C22.5087 10.3535 21.9041 10.3302 21.304 10.3853ZM18.2574 16.4213C18.7241 16.5275 19.162 16.7346 19.5402 17.0281C19.9185 17.3215 20.2278 17.6942 20.4467 18.12C20.636 18.5093 20.6547 18.576 20.6347 18.836C20.6315 18.9942 20.5829 19.1481 20.4947 19.2795C20.4066 19.4109 20.2825 19.5143 20.1374 19.5773C19.948 19.6626 19.7694 19.6693 17.364 19.6706C15.5747 19.6706 14.7414 19.6546 14.6267 19.616C14.3872 19.5162 14.1905 19.3354 14.0707 19.1053C13.9627 18.8773 13.98 18.664 14.136 18.2986C14.337 17.8251 14.6491 17.4069 15.046 17.0797C15.4429 16.7524 15.9129 16.5257 16.416 16.4186C16.8267 16.328 17.82 16.3306 18.2574 16.4213ZM9.71737 24.3453C8.85337 24.424 8.11337 24.852 7.68937 25.5213C7.36271 26.0346 7.34671 26.1653 7.34671 28.308C7.34671 30.4546 7.36671 30.6386 7.66937 31.2986C7.94305 31.8857 8.35256 32.3991 8.86403 32.7965C9.3755 33.1939 9.97423 33.4639 10.6107 33.584C11.1174 33.6813 13.5494 33.6813 14.056 33.584C14.6925 33.4639 15.2913 33.1939 15.8027 32.7965C16.3142 32.3991 16.7237 31.8857 16.9974 31.2986C17.3 30.6386 17.32 30.4546 17.32 28.308C17.32 26.5293 17.312 26.3546 17.224 26.068C16.988 25.3053 16.3627 24.708 15.5107 24.4333C15.2694 24.356 14.9787 24.3466 12.5774 24.3373C11.624 24.3294 10.6706 24.3321 9.71737 24.3453ZM15.44 25.8573C15.572 25.9386 15.7454 26.1 15.828 26.2146L15.976 26.4266L15.9907 28.1946C16.0014 29.3893 15.988 30.0573 15.9494 30.256C15.7867 31.1053 15.0494 31.892 14.1334 32.192C13.788 32.304 13.724 32.3093 12.3334 32.3093C10.9427 32.3093 10.8787 32.304 10.5334 32.192C9.63071 31.896 8.89604 31.1253 8.72137 30.2893C8.65337 29.964 8.64804 26.7093 8.71471 26.4666C8.78404 26.216 9.02271 25.9546 9.31471 25.8093L9.57071 25.6813L12.3867 25.6946L15.2014 25.7093L15.44 25.8573ZM3.16671 26.372C2.70565 26.4485 2.28486 26.681 1.97471 27.0306C1.82528 27.1874 1.69215 27.359 1.57737 27.5426C1.42793 27.857 1.34487 28.1988 1.33337 28.5466C1.33337 28.8746 1.89071 32.4813 2.02404 33.0173C2.27604 34.0293 2.67737 34.8586 3.31471 35.6826C3.80937 36.32 4.60404 37.024 5.23204 37.38C5.39204 37.4706 5.47604 37.5466 5.45471 37.5813L5.12004 38.1026C4.72271 38.7146 4.64804 38.8666 4.64804 39.0586C4.64804 39.488 5.32671 39.8333 5.68004 39.5866C5.74271 39.5413 6.00537 39.184 6.26137 38.792L6.73604 38.0653C6.87826 38.0831 7.01826 38.1106 7.15604 38.148C7.97604 38.34 8.30137 38.3466 15.996 38.3466C23.6894 38.3466 24.0507 38.3386 24.8427 38.1493C25.0467 38.1013 25.2254 38.0773 25.24 38.096L25.72 38.8C25.9707 39.168 26.232 39.5133 26.3014 39.568C26.6734 39.8613 27.3574 39.5053 27.3507 39.0213C27.3494 38.8586 27.2774 38.72 26.9294 38.2013C26.7829 37.9894 26.6433 37.7728 26.5107 37.552C26.5107 37.5373 26.6267 37.46 26.768 37.38C27.396 37.024 28.1907 36.32 28.6854 35.6826C29.292 34.9173 29.7254 34.0293 29.9587 33.0813C30.0947 32.56 30.6667 28.8853 30.6667 28.5333C30.6667 28.2493 30.5574 27.808 30.4227 27.5426C30.3087 27.3584 30.1755 27.1868 30.0254 27.0306C29.697 26.66 29.2428 26.4243 28.7507 26.3693C28.2907 26.3093 19.8054 26.3066 19.5494 26.3666C19.4315 26.3985 19.3225 26.4568 19.2307 26.5373C19.1187 26.6493 19.104 26.704 19.104 27.0013C19.104 27.2906 19.1214 27.356 19.2227 27.4653C19.3054 27.5453 19.4067 27.6053 19.516 27.64C19.6267 27.6706 21.36 27.688 24.1814 27.688C29.1494 27.6893 28.876 27.672 29.124 28.0013C29.3747 28.3333 29.3734 28.3626 29.028 30.6066C28.6907 32.7946 28.592 33.2106 28.244 33.9053C27.8974 34.5933 27.4787 35.1333 26.888 35.648C25.9814 36.4386 24.9614 36.8666 23.72 36.976C22.9654 37.0426 9.03471 37.0426 8.27604 36.976C7.58804 36.9234 6.91622 36.7411 6.29604 36.4386C5.62211 36.1031 5.02197 35.6364 4.53085 35.0658C4.03973 34.4952 3.66751 33.8323 3.43604 33.116C3.23737 32.508 2.63471 28.6346 2.69737 28.3653C2.75366 28.1388 2.88947 27.94 3.08004 27.8053C3.20137 27.7226 3.34804 27.7106 4.51337 27.6893C5.66271 27.6666 5.82671 27.6546 5.94804 27.5746C6.30404 27.3413 6.30404 26.668 5.94804 26.4333C5.82671 26.3546 5.68404 26.344 4.63604 26.336C3.98937 26.332 3.32804 26.348 3.16671 26.372Z" stroke="#252536" stroke-width="2" mask="url(#path-1-inside-1_1_2662)"/>
</svg>