<svg width="32" height="32" viewBox="0 0 32 32" fill="none" xmlns="http://www.w3.org/2000/svg">
<path fill-rule="evenodd" clip-rule="evenodd" d="M8.48263 5.99996C6.22929 5.99996 4.70796 7.39196 4.70796 8.77863V14.0586H27.0666V8.77863C27.0666 7.39196 25.544 5.99996 23.2906 5.99996H8.48263ZM28.4 14.1146V8.77863C28.4 6.35996 25.9453 4.66663 23.2906 4.66663H8.48396C5.82929 4.66663 3.37329 6.35996 3.37329 8.77863V14.1613C1.85196 14.5213 0.666626 15.784 0.666626 17.3786V22.6853C0.666626 23.6093 1.31063 24.324 2.13329 24.5786V26.6666C2.13329 26.8434 2.20353 27.013 2.32855 27.138C2.45358 27.2631 2.62315 27.3333 2.79996 27.3333C2.97677 27.3333 3.14634 27.2631 3.27136 27.138C3.39639 27.013 3.46663 26.8434 3.46663 26.6666V24.68H28.5333V26.6666C28.5333 26.8434 28.6035 27.013 28.7286 27.138C28.8536 27.2631 29.0231 27.3333 29.2 27.3333C29.3768 27.3333 29.5463 27.2631 29.6714 27.138C29.7964 27.013 29.8666 26.8434 29.8666 26.6666V24.5786C30.6893 24.324 31.3333 23.6093 31.3333 22.6853V17.3786C31.3333 15.7053 30.028 14.4 28.4 14.1146ZM6.08263 9.76396C6.08263 8.82663 6.89996 8.17863 7.76396 8.17863H13.8573C14.7213 8.17863 15.5373 8.82663 15.5373 9.76396V12.6666C15.5373 12.8434 15.4671 13.013 15.342 13.138C15.217 13.2631 15.0474 13.3333 14.8706 13.3333C14.6938 13.3333 14.5242 13.2631 14.3992 13.138C14.2742 13.013 14.204 12.8434 14.204 12.6666V9.76396C14.2026 9.73421 14.195 9.70508 14.1817 9.67844C14.1683 9.6518 14.1496 9.62825 14.1266 9.60929C14.0516 9.54441 13.9551 9.50972 13.856 9.51196H7.76396C7.66479 9.50972 7.56832 9.54441 7.49329 9.60929C7.47032 9.62825 7.45157 9.6518 7.43825 9.67844C7.42493 9.70508 7.41734 9.73421 7.41596 9.76396V12.6666C7.41596 12.8434 7.34572 13.013 7.2207 13.138C7.09567 13.2631 6.9261 13.3333 6.74929 13.3333C6.57248 13.3333 6.40291 13.2631 6.27789 13.138C6.15286 13.013 6.08263 12.8434 6.08263 12.6666V9.76396ZM16.0826 9.76396C16.0826 8.82663 16.9 8.17863 17.764 8.17863H23.8573C24.7213 8.17863 25.5373 8.82663 25.5373 9.76396V12.6666C25.5373 12.8434 25.4671 13.013 25.342 13.138C25.217 13.2631 25.0474 13.3333 24.8706 13.3333C24.6938 13.3333 24.5242 13.2631 24.3992 13.138C24.2742 13.013 24.204 12.8434 24.204 12.6666V9.76396C24.2026 9.73421 24.195 9.70508 24.1817 9.67844C24.1683 9.6518 24.1496 9.62825 24.1266 9.60929C24.0516 9.54441 23.9551 9.50972 23.856 9.51196H17.764C17.6648 9.50972 17.5683 9.54441 17.4933 9.60929C17.4703 9.62825 17.4516 9.6518 17.4383 9.67844C17.4249 9.70508 17.4173 9.73421 17.416 9.76396V12.6666C17.416 12.8434 17.3457 13.013 17.2207 13.138C17.0957 13.2631 16.9261 13.3333 16.7493 13.3333C16.5725 13.3333 16.4029 13.2631 16.2779 13.138C16.1529 13.013 16.0826 12.8434 16.0826 12.6666V9.76396ZM4.26663 15.3906C2.95063 15.3906 1.99996 16.3413 1.99996 17.3773V22.6853C1.99996 22.9893 2.29329 23.3466 2.79996 23.3466H29.2C29.7066 23.3466 30 22.9893 30 22.6853V17.3786C30 16.3413 29.0493 15.392 27.7333 15.392L4.26663 15.3906Z" fill="#252536"/>
</svg>