<svg width="20" height="32" viewBox="0 0 20 32" fill="none" xmlns="http://www.w3.org/2000/svg">
<path d="M14.2254 31.0001H16.8361C17.2254 31.0001 17.5405 30.6844 17.5405 30.2956C17.5405 29.7186 17.3069 29.1964 16.9284 28.8186C16.5506 28.4401 16.0284 28.2065 15.4514 28.2065H4.07547C2.92134 28.2065 1.98633 29.1415 1.98633 30.2956C1.98633 30.49 2.0648 30.6663 2.19277 30.7936C2.32013 30.921 2.49579 31.0001 2.69076 31.0001H12.1127M10.9834 24.5849V28.206H8.54356V24.5849M8.5435 12.5738V10.5022M8.5435 22.058V14.6865M10.9834 22.0581V10.5023" stroke="#252536" stroke-width="1.2" stroke-miterlimit="10" stroke-linecap="round" stroke-linejoin="round"/>
<path d="M5.05709 24.5848H14.4698C15.1676 24.5848 15.7333 24.0191 15.7333 23.3213C15.7333 22.6235 15.1676 22.0578 14.4698 22.0578H5.05709C4.35924 22.0578 3.79358 22.6235 3.79358 23.3213C3.79352 24.0191 4.35924 24.5848 5.05709 24.5848ZM11.5844 10.5023H7.94241C7.44526 10.5023 7.04229 10.0993 7.04229 9.60215V8.06152H12.4845V9.60215C12.4845 10.0993 12.0815 10.5023 11.5844 10.5023Z" stroke="#252536" stroke-width="1.2" stroke-miterlimit="10" stroke-linecap="round" stroke-linejoin="round"/>
<path d="M16.7896 5.3501H18.5268V7.22133C18.5268 7.68552 18.1508 8.06158 17.6866 8.06158H1.84024C1.37606 8.06158 1 7.68552 1 7.22133V5.3501H14.6769" stroke="#252536" stroke-width="1.2" stroke-miterlimit="10" stroke-linecap="round" stroke-linejoin="round"/>
<path d="M1.00012 5.35038V2.61373C1.00012 1.72248 1.7226 1 2.61385 1H16.913C17.8042 1 18.5267 1.72248 18.5267 2.61373V5.35038" stroke="#252536" stroke-width="1.2" stroke-miterlimit="10" stroke-linecap="round" stroke-linejoin="round"/>
</svg>