<svg width="30" height="29" viewBox="0 0 30 29" fill="none" xmlns="http://www.w3.org/2000/svg">
<path d="M26.25 10.75L25.185 6.8425C24.774 5.335 24.5685 4.582 24.147 4.0135C23.7267 3.4487 23.156 3.0136 22.5 2.758C21.84 2.5 21.06 2.5 19.5 2.5M3.75 10.75L4.815 6.8425C5.226 5.335 5.4315 4.582 5.853 4.0135C6.27327 3.4487 6.84403 3.0136 7.5 2.758C8.16 2.5 8.94 2.5 10.5 2.5" stroke="#616175" stroke-width="2"/>
<path d="M2.79605 21.1825C1.50905 16.0345 0.865549 13.462 2.21705 11.731C3.56855 10 6.22205 10 11.5275 10H18.4725C23.7795 10 26.4315 10 27.783 11.731C29.1345 13.462 28.491 16.036 27.204 21.1825C26.385 24.457 25.977 26.0935 24.756 27.0475C23.535 28 21.8475 28 18.4725 28H11.5275C8.15255 28 6.46505 28 5.24405 27.0475C4.02305 26.0935 3.61355 24.457 2.79605 21.1825Z" stroke="#252536" stroke-width="2"/>
<path d="M10.5 2.5C10.5 2.10218 10.658 1.72064 10.9393 1.43934C11.2206 1.15804 11.6022 1 12 1H18C18.3978 1 18.7794 1.15804 19.0607 1.43934C19.342 1.72064 19.5 2.10218 19.5 2.5C19.5 2.89782 19.342 3.27936 19.0607 3.56066C18.7794 3.84196 18.3978 4 18 4H12C11.6022 4 11.2206 3.84196 10.9393 3.56066C10.658 3.27936 10.5 2.89782 10.5 2.5Z" stroke="#252536" stroke-width="2"/>
<path d="M9 16V22M21 16V22M15 16V22" stroke="#616175" stroke-width="2" stroke-linecap="round" stroke-linejoin="round"/>
</svg>