<svg width="52" height="52" viewBox="0 0 52 52" fill="none" xmlns="http://www.w3.org/2000/svg">
  <style>
  </style>
<rect width="52" height="52" rx="26" fill="#DA0916"/>
<path d="M12.667 14L13.0203 14.1173C14.7803 14.704 15.6603 14.9973 16.163 15.696C16.6657 16.3947 16.667 17.3227 16.667 19.1773V22.6667C16.667 26.4373 16.667 28.324 17.839 29.4947C19.0097 30.6667 20.8963 30.6667 24.667 30.6667H35.3337" stroke="white" stroke-width="1.5" stroke-linecap="round"/>
<path d="M20 34C20.5304 34 21.0391 34.2107 21.4142 34.5858C21.7893 34.9609 22 35.4696 22 36C22 36.5304 21.7893 37.0391 21.4142 37.4142C21.0391 37.7893 20.5304 38 20 38C19.4696 38 18.9609 37.7893 18.5858 37.4142C18.2107 37.0391 18 36.5304 18 36C18 35.4696 18.2107 34.9609 18.5858 34.5858C18.9609 34.2107 19.4696 34 20 34ZM32 34C32.5304 34 33.0391 34.2107 33.4142 34.5858C33.7893 34.9609 34 35.4696 34 36C34 36.5304 33.7893 37.0391 33.4142 37.4142C33.0391 37.7893 32.5304 38 32 38C31.4696 38 30.9609 37.7893 30.5858 37.4142C30.2107 37.0391 30 36.5304 30 36C30 35.4696 30.2107 34.9609 30.5858 34.5858C30.9609 34.2107 31.4696 34 32 34Z" stroke="white" stroke-width="1.5"/>
<path d="M16.667 18H31.9337C34.6737 18 36.0443 18 36.6377 18.8987C37.2297 19.7987 36.691 21.0573 35.611 23.576L35.039 24.9093C34.535 26.0853 34.283 26.672 33.783 27.0027C33.2817 27.3333 32.6417 27.3333 31.363 27.3333H16.667" stroke="white" stroke-width="1.5"/>
</svg>