<svg width="24" height="28" viewBox="0 0 24 28" fill="none" xmlns="http://www.w3.org/2000/svg">
<path d="M10.0422 0.9999H13.9578C15.7578 0.9999 17.2518 2.14746 17.439 3.67369L18.4764 12.1356C18.5562 12.7858 18.3327 13.3715 17.8194 13.8572C17.3062 14.3428 16.6462 14.5933 15.8793 14.5933H8.12067C7.35389 14.5933 6.69384 14.3428 6.18067 13.8572C5.66739 13.3715 5.44384 12.7858 5.52356 12.1356L6.56112 3.67369C6.74823 2.14746 8.24228 0.9999 10.0422 0.9999Z" stroke="#252536" stroke-width="1.2" stroke-miterlimit="22.926" stroke-linecap="round" stroke-linejoin="round"/>
<path d="M12 18.8548V27" stroke="#252536" stroke-width="1.2" stroke-miterlimit="22.926" stroke-linecap="round" stroke-linejoin="round"/>
<path d="M5.11087 14.5933H18.8886C20.0498 14.5933 20.9998 15.5157 20.9998 16.6431C20.9998 17.7705 20.0498 18.6929 18.8886 18.6929H5.11087C3.9497 18.6929 2.99976 17.7705 2.99976 16.6431C2.99976 15.5157 3.9497 14.5933 5.11087 14.5933Z" stroke="#252536" stroke-width="1.2" stroke-miterlimit="22.926" stroke-linecap="round" stroke-linejoin="round"/>
<path d="M4.66675 26.9997V25.8131C4.66675 25.0108 5.34064 24.3566 6.16686 24.3566H17.8332C18.6595 24.3566 19.3334 25.0108 19.3334 25.8131V27" stroke="#252536" stroke-width="1.2" stroke-miterlimit="22.926" stroke-linecap="round" stroke-linejoin="round"/>
<path d="M23.0002 12.5435H21.0002V16.2388" stroke="#252536" stroke-width="1.2" stroke-miterlimit="22.926" stroke-linecap="round" stroke-linejoin="round"/>
<path d="M1 12.5435H3V16.2388" stroke="#252536" stroke-width="1.2" stroke-miterlimit="22.926" stroke-linecap="round" stroke-linejoin="round"/>
</svg>