<svg width="32" height="50" viewBox="0 0 32 50" fill="none" xmlns="http://www.w3.org/2000/svg">
<mask id="path-1-inside-1_1_2641" fill="white">
<path d="M6.62265 11.696C6.04868 11.7935 5.51828 12.0643 5.10265 12.472C4.90384 12.6617 4.74357 12.8881 4.63065 13.1386C4.34531 13.7386 4.33331 13.8293 4.33331 15.4226C4.33331 16.8066 4.33598 16.848 4.43065 17C4.4893 17.0983 4.57276 17.1795 4.67269 17.2354C4.77261 17.2914 4.88548 17.3201 4.99998 17.3186C5.11448 17.3201 5.22735 17.2914 5.32727 17.2354C5.4272 17.1795 5.51067 17.0983 5.56931 17C5.66265 16.8506 5.66798 16.788 5.68931 15.3773C5.70798 14.0733 5.71998 13.8946 5.79198 13.764C5.94106 13.5038 6.15755 13.2887 6.41865 13.1413L6.64398 13.0226L9.11065 13C11.5746 12.9773 11.5773 12.9773 11.7173 12.8786C11.8076 12.8156 11.8805 12.7307 11.9292 12.632C11.978 12.5332 12.0009 12.4237 11.996 12.3137C11.9911 12.2037 11.9584 12.0967 11.9011 12.0027C11.8437 11.9087 11.7636 11.8307 11.668 11.776L11.48 11.6666L9.10531 11.6733C8.27725 11.6704 7.45052 11.678 6.62265 11.696ZM10.7146 13.744C10.3706 13.92 10.3133 14.124 10.312 15.188C10.3106 16.0773 10.352 15.984 9.93731 16.04C9.67865 16.0746 9.30931 16.28 9.10531 16.5C8.84816 16.774 8.69625 17.1302 8.67648 17.5056C8.65672 17.8809 8.77037 18.2511 8.99731 18.5506C9.21731 18.852 10.1413 19.7346 10.3413 19.8373C10.7546 20.0466 11.2413 20.048 11.6546 19.8413C11.7613 19.7866 12.112 19.4773 12.4546 19.1333C13.2173 18.3706 13.3106 18.2026 13.3106 17.5986C13.3106 17.236 13.2973 17.1706 13.164 16.9013C12.9266 16.4186 12.384 16.0226 11.9573 16.0226C11.6826 16.0226 11.6893 16.0426 11.688 15.1613C11.688 14.7186 11.6666 14.276 11.64 14.1773C11.5253 13.7573 11.0893 13.5533 10.7146 13.744ZM10.5146 17.4773C10.7133 17.6293 10.7586 17.644 11.0066 17.644C11.2506 17.644 11.3 17.628 11.4666 17.4946C11.6733 17.328 11.8506 17.3026 11.9413 17.4253C12.0586 17.5866 12.0053 17.6813 11.5226 18.1653C11.26 18.4293 11.024 18.644 10.9986 18.644C10.912 18.644 9.99865 17.684 9.99865 17.5933C9.99865 17.46 10.1226 17.3346 10.272 17.3146C10.3591 17.36 10.4391 17.4142 10.5146 17.4773ZM4.51065 18.3786C4.08371 18.4639 3.68986 18.6689 3.37512 18.9697C3.06039 19.2705 2.83778 19.6546 2.73331 20.0773C2.63331 20.5013 2.63465 36.8373 2.73331 37.2626C3.01731 38.46 4.29998 39.2373 5.49065 38.932C5.89465 38.828 6.20265 38.66 6.50398 38.3773C6.82764 38.0913 7.05492 37.7122 7.15465 37.292C7.24265 36.9466 7.24398 36.8213 7.24398 28.6666C7.24398 20.536 7.24265 20.3853 7.15598 20.044C7.07022 19.66 6.87311 19.3098 6.58931 19.0373C6.32186 18.7673 5.99283 18.5663 5.63052 18.4515C5.2682 18.3368 4.88477 18.3118 4.51065 18.3786ZM26.5173 18.4013C26.0986 18.5133 25.7173 18.732 25.4107 19.0373C25.128 19.3106 24.9306 19.66 24.844 20.044C24.7573 20.3853 24.756 20.536 24.756 28.6666C24.756 36.8213 24.756 36.9466 24.8453 37.292C24.9587 37.7346 25.148 38.0506 25.496 38.3773C25.968 38.82 26.5453 39.0293 27.176 38.9866C28.1973 38.9173 29.0386 38.2226 29.2653 37.2626C29.324 37.0133 29.332 35.924 29.332 28.6666C29.332 19.5346 29.348 20.0666 29.064 19.5346C28.7828 19.0395 28.3348 18.6605 27.8 18.4653C27.384 18.3398 26.9437 18.3178 26.5173 18.4013ZM5.38131 19.7893C5.50142 19.8449 5.60744 19.9269 5.69147 20.0292C5.7755 20.1314 5.83538 20.2513 5.86665 20.38C5.89731 20.4893 5.90665 23.3426 5.89998 28.7626L5.88931 36.9773L5.78931 37.164C5.71943 37.2945 5.61988 37.4069 5.49868 37.492C5.37748 37.5771 5.23801 37.6326 5.09147 37.654C4.94493 37.6754 4.79541 37.6621 4.65494 37.6152C4.51446 37.5683 4.38695 37.4891 4.28265 37.384C4.1778 37.2833 4.0979 37.1596 4.04931 37.0226C3.97998 36.772 3.97998 20.564 4.04931 20.3106C4.10798 20.0973 4.42265 19.7773 4.63198 19.716C4.75538 19.6771 4.88537 19.6635 5.01414 19.6761C5.14291 19.6887 5.2678 19.7272 5.38131 19.7893ZM27.3466 19.7133C27.576 19.7773 27.8893 20.0866 27.9506 20.3106C28.02 20.564 28.02 36.772 27.9506 37.0226C27.9021 37.1596 27.8222 37.2833 27.7173 37.384C27.613 37.4891 27.4855 37.5683 27.345 37.6152C27.2046 37.6621 27.055 37.6754 26.9085 37.654C26.762 37.6326 26.6225 37.5771 26.5013 37.492C26.3801 37.4069 26.2805 37.2945 26.2107 37.164L26.1106 36.9773L26.1 28.7626C26.092 23.3426 26.1026 20.4893 26.1333 20.38C26.1646 20.2513 26.2245 20.1314 26.3085 20.0292C26.3925 19.9269 26.4985 19.8449 26.6187 19.7893C26.7281 19.7267 26.8493 19.6876 26.9746 19.6746C27.1 19.6615 27.2267 19.6747 27.3466 19.7133ZM8.03998 22.0733C7.93488 22.0961 7.83703 22.1445 7.75514 22.2143C7.67324 22.284 7.60982 22.3729 7.57051 22.473C7.53121 22.5731 7.51722 22.6814 7.52981 22.7882C7.54239 22.895 7.58115 22.9971 7.64265 23.0853C7.84265 23.3706 7.87998 23.376 9.38931 23.392L10.756 23.4053V30.5106H9.39465C8.07865 30.5106 8.02931 30.5146 7.86131 30.608C7.67998 30.7106 7.51065 30.984 7.51065 31.1773C7.51065 31.3906 7.68398 31.656 7.88398 31.7533L8.07465 31.8453L16.056 31.8333L24.0373 31.8226L24.16 31.7306C24.2416 31.6771 24.3114 31.6075 24.3653 31.5261C24.4191 31.4448 24.4559 31.3533 24.4733 31.2573C24.5106 31.024 24.3613 30.7333 24.1386 30.608C23.9706 30.5146 23.9213 30.5106 22.6053 30.5106H21.244V23.4053L22.6106 23.392C23.8066 23.38 23.996 23.368 24.1173 23.3013C24.2162 23.2488 24.3003 23.1723 24.3619 23.0788C24.4234 22.9852 24.4604 22.8777 24.4694 22.7661C24.4785 22.6545 24.4593 22.5425 24.4136 22.4402C24.3679 22.338 24.2972 22.249 24.208 22.1813L24.0826 22.0893L16.132 22.0666C11.7586 22.0546 8.11731 22.0573 8.03998 22.0733ZM15.6 26.956V30.5106H12.0893V23.4H15.6V26.956ZM19.9106 26.956V30.5106H16.9333V23.4H19.9106V26.956ZM8.03998 33.184C7.88284 33.2159 7.74316 33.305 7.64806 33.4341C7.55296 33.5633 7.50921 33.7231 7.52531 33.8826C7.54798 34.1093 7.65865 34.276 7.86931 34.4C8.01998 34.488 8.10131 34.4893 15.9986 34.4893C23.896 34.4893 23.9773 34.488 24.128 34.4C24.56 34.1453 24.6 33.5813 24.2066 33.292L24.0813 33.2L16.1306 33.1773C11.7573 33.1653 8.11731 33.168 8.03998 33.184Z"/>
</mask>
<path d="M6.62265 11.696C6.04868 11.7935 5.51828 12.0643 5.10265 12.472C4.90384 12.6617 4.74357 12.8881 4.63065 13.1386C4.34531 13.7386 4.33331 13.8293 4.33331 15.4226C4.33331 16.8066 4.33598 16.848 4.43065 17C4.4893 17.0983 4.57276 17.1795 4.67269 17.2354C4.77261 17.2914 4.88548 17.3201 4.99998 17.3186C5.11448 17.3201 5.22735 17.2914 5.32727 17.2354C5.4272 17.1795 5.51067 17.0983 5.56931 17C5.66265 16.8506 5.66798 16.788 5.68931 15.3773C5.70798 14.0733 5.71998 13.8946 5.79198 13.764C5.94106 13.5038 6.15755 13.2887 6.41865 13.1413L6.64398 13.0226L9.11065 13C11.5746 12.9773 11.5773 12.9773 11.7173 12.8786C11.8076 12.8156 11.8805 12.7307 11.9292 12.632C11.978 12.5332 12.0009 12.4237 11.996 12.3137C11.9911 12.2037 11.9584 12.0967 11.9011 12.0027C11.8437 11.9087 11.7636 11.8307 11.668 11.776L11.48 11.6666L9.10531 11.6733C8.27725 11.6704 7.45052 11.678 6.62265 11.696ZM10.7146 13.744C10.3706 13.92 10.3133 14.124 10.312 15.188C10.3106 16.0773 10.352 15.984 9.93731 16.04C9.67865 16.0746 9.30931 16.28 9.10531 16.5C8.84816 16.774 8.69625 17.1302 8.67648 17.5056C8.65672 17.8809 8.77037 18.2511 8.99731 18.5506C9.21731 18.852 10.1413 19.7346 10.3413 19.8373C10.7546 20.0466 11.2413 20.048 11.6546 19.8413C11.7613 19.7866 12.112 19.4773 12.4546 19.1333C13.2173 18.3706 13.3106 18.2026 13.3106 17.5986C13.3106 17.236 13.2973 17.1706 13.164 16.9013C12.9266 16.4186 12.384 16.0226 11.9573 16.0226C11.6826 16.0226 11.6893 16.0426 11.688 15.1613C11.688 14.7186 11.6666 14.276 11.64 14.1773C11.5253 13.7573 11.0893 13.5533 10.7146 13.744ZM10.5146 17.4773C10.7133 17.6293 10.7586 17.644 11.0066 17.644C11.2506 17.644 11.3 17.628 11.4666 17.4946C11.6733 17.328 11.8506 17.3026 11.9413 17.4253C12.0586 17.5866 12.0053 17.6813 11.5226 18.1653C11.26 18.4293 11.024 18.644 10.9986 18.644C10.912 18.644 9.99865 17.684 9.99865 17.5933C9.99865 17.46 10.1226 17.3346 10.272 17.3146C10.3591 17.36 10.4391 17.4142 10.5146 17.4773ZM4.51065 18.3786C4.08371 18.4639 3.68986 18.6689 3.37512 18.9697C3.06039 19.2705 2.83778 19.6546 2.73331 20.0773C2.63331 20.5013 2.63465 36.8373 2.73331 37.2626C3.01731 38.46 4.29998 39.2373 5.49065 38.932C5.89465 38.828 6.20265 38.66 6.50398 38.3773C6.82764 38.0913 7.05492 37.7122 7.15465 37.292C7.24265 36.9466 7.24398 36.8213 7.24398 28.6666C7.24398 20.536 7.24265 20.3853 7.15598 20.044C7.07022 19.66 6.87311 19.3098 6.58931 19.0373C6.32186 18.7673 5.99283 18.5663 5.63052 18.4515C5.2682 18.3368 4.88477 18.3118 4.51065 18.3786ZM26.5173 18.4013C26.0986 18.5133 25.7173 18.732 25.4107 19.0373C25.128 19.3106 24.9306 19.66 24.844 20.044C24.7573 20.3853 24.756 20.536 24.756 28.6666C24.756 36.8213 24.756 36.9466 24.8453 37.292C24.9587 37.7346 25.148 38.0506 25.496 38.3773C25.968 38.82 26.5453 39.0293 27.176 38.9866C28.1973 38.9173 29.0386 38.2226 29.2653 37.2626C29.324 37.0133 29.332 35.924 29.332 28.6666C29.332 19.5346 29.348 20.0666 29.064 19.5346C28.7828 19.0395 28.3348 18.6605 27.8 18.4653C27.384 18.3398 26.9437 18.3178 26.5173 18.4013ZM5.38131 19.7893C5.50142 19.8449 5.60744 19.9269 5.69147 20.0292C5.7755 20.1314 5.83538 20.2513 5.86665 20.38C5.89731 20.4893 5.90665 23.3426 5.89998 28.7626L5.88931 36.9773L5.78931 37.164C5.71943 37.2945 5.61988 37.4069 5.49868 37.492C5.37748 37.5771 5.23801 37.6326 5.09147 37.654C4.94493 37.6754 4.79541 37.6621 4.65494 37.6152C4.51446 37.5683 4.38695 37.4891 4.28265 37.384C4.1778 37.2833 4.0979 37.1596 4.04931 37.0226C3.97998 36.772 3.97998 20.564 4.04931 20.3106C4.10798 20.0973 4.42265 19.7773 4.63198 19.716C4.75538 19.6771 4.88537 19.6635 5.01414 19.6761C5.14291 19.6887 5.2678 19.7272 5.38131 19.7893ZM27.3466 19.7133C27.576 19.7773 27.8893 20.0866 27.9506 20.3106C28.02 20.564 28.02 36.772 27.9506 37.0226C27.9021 37.1596 27.8222 37.2833 27.7173 37.384C27.613 37.4891 27.4855 37.5683 27.345 37.6152C27.2046 37.6621 27.055 37.6754 26.9085 37.654C26.762 37.6326 26.6225 37.5771 26.5013 37.492C26.3801 37.4069 26.2805 37.2945 26.2107 37.164L26.1106 36.9773L26.1 28.7626C26.092 23.3426 26.1026 20.4893 26.1333 20.38C26.1646 20.2513 26.2245 20.1314 26.3085 20.0292C26.3925 19.9269 26.4985 19.8449 26.6187 19.7893C26.7281 19.7267 26.8493 19.6876 26.9746 19.6746C27.1 19.6615 27.2267 19.6747 27.3466 19.7133ZM8.03998 22.0733C7.93488 22.0961 7.83703 22.1445 7.75514 22.2143C7.67324 22.284 7.60982 22.3729 7.57051 22.473C7.53121 22.5731 7.51722 22.6814 7.52981 22.7882C7.54239 22.895 7.58115 22.9971 7.64265 23.0853C7.84265 23.3706 7.87998 23.376 9.38931 23.392L10.756 23.4053V30.5106H9.39465C8.07865 30.5106 8.02931 30.5146 7.86131 30.608C7.67998 30.7106 7.51065 30.984 7.51065 31.1773C7.51065 31.3906 7.68398 31.656 7.88398 31.7533L8.07465 31.8453L16.056 31.8333L24.0373 31.8226L24.16 31.7306C24.2416 31.6771 24.3114 31.6075 24.3653 31.5261C24.4191 31.4448 24.4559 31.3533 24.4733 31.2573C24.5106 31.024 24.3613 30.7333 24.1386 30.608C23.9706 30.5146 23.9213 30.5106 22.6053 30.5106H21.244V23.4053L22.6106 23.392C23.8066 23.38 23.996 23.368 24.1173 23.3013C24.2162 23.2488 24.3003 23.1723 24.3619 23.0788C24.4234 22.9852 24.4604 22.8777 24.4694 22.7661C24.4785 22.6545 24.4593 22.5425 24.4136 22.4402C24.3679 22.338 24.2972 22.249 24.208 22.1813L24.0826 22.0893L16.132 22.0666C11.7586 22.0546 8.11731 22.0573 8.03998 22.0733ZM15.6 26.956V30.5106H12.0893V23.4H15.6V26.956ZM19.9106 26.956V30.5106H16.9333V23.4H19.9106V26.956ZM8.03998 33.184C7.88284 33.2159 7.74316 33.305 7.64806 33.4341C7.55296 33.5633 7.50921 33.7231 7.52531 33.8826C7.54798 34.1093 7.65865 34.276 7.86931 34.4C8.01998 34.488 8.10131 34.4893 15.9986 34.4893C23.896 34.4893 23.9773 34.488 24.128 34.4C24.56 34.1453 24.6 33.5813 24.2066 33.292L24.0813 33.2L16.1306 33.1773C11.7573 33.1653 8.11731 33.168 8.03998 33.184Z" stroke="#252536" stroke-width="2" mask="url(#path-1-inside-1_1_2641)"/>
</svg>