<svg width="32" height="50" viewBox="0 0 32 50" fill="none" xmlns="http://www.w3.org/2000/svg">
<path d="M29.3333 13.0893C29.3345 12.8162 29.282 12.5455 29.1786 12.2926C29.0752 12.0398 28.923 11.8098 28.7307 11.6158C28.5384 11.4218 28.3098 11.2676 28.0579 11.1619C27.806 11.0562 27.5358 11.0012 27.2626 11L29.3333 13.0893ZM29.3333 13.0893V36.9107V13.0893ZM28.1458 37.7905C28.2602 37.6733 28.3503 37.5347 28.411 37.3827C28.4713 37.2317 28.5016 37.0705 28.5 36.908V13.092C28.5016 12.9295 28.4713 12.7683 28.411 12.6173C28.3503 12.4653 28.2602 12.3267 28.1458 12.2095C28.0315 12.0923 27.8952 11.9987 27.7448 11.9342C27.5943 11.8697 27.4326 11.8354 27.2689 11.8334V11.8333H27.2626H22.404H21.904V12.3333V37.6667V38.1667H22.404H27.2626V38.1667L27.2689 38.1666C27.4326 38.1646 27.5943 38.1303 27.7448 38.0658C27.8952 38.0013 28.0315 37.9077 28.1458 37.7905ZM28.1458 37.7905L27.7879 37.4414M28.1458 37.7905C28.1458 37.7905 28.1458 37.7905 28.1459 37.7905L27.7879 37.4414M27.7879 37.4414C27.7194 37.5116 27.6378 37.5676 27.5477 37.6063C27.4576 37.6449 27.3607 37.6654 27.2626 37.6667L28 36.9107C28.0012 37.0087 27.9831 37.1061 27.9467 37.1971C27.9103 37.2882 27.8564 37.3712 27.7879 37.4414ZM3.16665 13.0893H3.16665L3.16664 13.0871C3.16571 12.8796 3.20565 12.674 3.2842 12.4819C3.36274 12.2899 3.47834 12.1152 3.6244 11.9678C3.77045 11.8204 3.94411 11.7032 4.13545 11.623C4.32647 11.5428 4.53138 11.5011 4.73851 11.5H27.2614C27.4686 11.5011 27.6735 11.5428 27.8645 11.623C28.0559 11.7032 28.2295 11.8204 28.3756 11.9678C28.5216 12.1152 28.6372 12.2899 28.7158 12.4819C28.7943 12.674 28.8343 12.8796 28.8333 13.0871V13.0893L28.8333 36.9107L28.8333 36.9129C28.8343 37.1204 28.7943 37.326 28.7158 37.5181C28.6372 37.7101 28.5216 37.8848 28.3756 38.0322C28.2295 38.1796 28.0558 38.2968 27.8645 38.377L28.0579 38.8381L27.8645 38.377C27.6735 38.4571 27.4687 38.4989 27.2616 38.5H4.73837C4.53128 38.4989 4.32643 38.4571 4.13545 38.377L3.94204 38.8381L4.13545 38.377C3.94411 38.2968 3.77046 38.1796 3.62439 38.0322C3.47834 37.8849 3.36274 37.7101 3.28419 37.5181C3.20565 37.326 3.16571 37.1204 3.16665 36.9129V36.9107V13.0893ZM4.73731 11.8333V11.8333L4.7311 11.8334C4.56739 11.8354 4.40567 11.8697 4.2552 11.9342C4.10472 11.9987 3.96843 12.0923 3.85411 12.2095C3.73979 12.3267 3.64968 12.4653 3.58893 12.6173C3.52861 12.7683 3.4984 12.9296 3.49998 13.0921V36.9107C3.49998 37.6094 4.05844 38.1667 4.73731 38.1667H11.7373H12.2373V37.6667V12.3333V11.8333H11.7373H4.73731ZM13.0706 11.8333H12.5706V12.3333V37.6667V38.1667H13.0706H21.0706H21.5706V37.6667V12.3333V11.8333H21.0706H13.0706ZM8.92931 21.3227C8.97351 21.3227 9.01591 21.3402 9.04717 21.3715C9.07842 21.4027 9.09598 21.4451 9.09598 21.4893V24.9107C9.09598 24.9549 9.07842 24.9973 9.04717 25.0285C9.01591 25.0598 8.97352 25.0773 8.92931 25.0773C8.88511 25.0773 8.84272 25.0598 8.81146 25.0285C8.78021 24.9973 8.76265 24.9549 8.76265 24.9107V21.4893C8.76265 21.4451 8.78021 21.4027 8.81146 21.3715C8.84272 21.3402 8.88511 21.3227 8.92931 21.3227ZM15.2093 21.3227C15.2535 21.3227 15.2959 21.3402 15.3272 21.3715C15.3584 21.4027 15.376 21.4451 15.376 21.4893V24.9107C15.376 24.9549 15.3584 24.9973 15.3272 25.0285C15.2959 25.0598 15.2535 25.0773 15.2093 25.0773C15.1651 25.0773 15.1227 25.0598 15.0915 25.0285C15.0602 24.9973 15.0426 24.9549 15.0426 24.9107V21.4893C15.0426 21.4451 15.0602 21.4027 15.0915 21.3715C15.1227 21.3402 15.1651 21.3227 15.2093 21.3227ZM24.9293 21.3227C24.9735 21.3227 25.0159 21.3402 25.0472 21.3715C25.0784 21.4027 25.096 21.4451 25.096 21.4893V24.9107C25.096 24.9549 25.0784 24.9973 25.0472 25.0285L25.4007 25.3821L25.0472 25.0285C25.0159 25.0598 24.9735 25.0773 24.9293 25.0773C24.8851 25.0773 24.8427 25.0598 24.8115 25.0285C24.7802 24.9973 24.7626 24.9549 24.7626 24.9107V21.4893C24.7626 21.4451 24.7802 21.4027 24.8115 21.3715C24.8427 21.3402 24.8851 21.3227 24.9293 21.3227Z" stroke="#252536"/>
</svg>