<svg width="32" height="50" viewBox="0 0 32 50" fill="none" xmlns="http://www.w3.org/2000/svg">
<rect x="3" y="26.4443" width="8.66667" height="11.5556" rx="0.722222" stroke="#252536" stroke-width="1.2"/>
<path d="M3 30.2964H7.33333H11.6667V28.3705V26.4445H7.33333H3V28.3705V30.2964Z" stroke="#252536" stroke-width="1.2"/>
<path d="M7.57407 28.3705C7.57407 28.5034 7.46629 28.6112 7.33333 28.6112C7.20038 28.6112 7.09259 28.5034 7.09259 28.3705C7.09259 28.2375 7.20038 28.1297 7.33333 28.1297C7.46629 28.1297 7.57407 28.2375 7.57407 28.3705Z" stroke="#252536" stroke-width="1.2"/>
<path d="M3 34.1482H7.33333H11.6667V32.2223V30.2963H7.33333H3V32.2223V34.1482Z" stroke="#252536" stroke-width="1.2"/>
<path d="M7.57407 32.2223C7.57407 32.3552 7.46629 32.463 7.33333 32.463C7.20038 32.463 7.09259 32.3552 7.09259 32.2223C7.09259 32.0893 7.20038 31.9815 7.33333 31.9815C7.46629 31.9815 7.57407 32.0893 7.57407 32.2223Z" stroke="#252536" stroke-width="1.2"/>
<path d="M3 37.2778C3 37.6767 3.32335 38 3.72222 38H7.33333H10.9444C11.3433 38 11.6667 37.6767 11.6667 37.2778V36.0741V34.8704C11.6667 34.4715 11.3433 34.1481 10.9444 34.1481H7.33333H3.72222C3.32335 34.1481 3 34.4715 3 34.8704V36.0741V37.2778Z" stroke="#252536" stroke-width="1.2"/>
<path d="M7.57407 36.0741C7.57407 36.207 7.46629 36.3148 7.33333 36.3148C7.20038 36.3148 7.09259 36.207 7.09259 36.0741C7.09259 35.9411 7.20038 35.8333 7.33333 35.8333C7.46629 35.8333 7.57407 35.9411 7.57407 36.0741Z" stroke="#252536" stroke-width="1.2"/>
<rect x="9.74072" y="12" width="13.2006" height="7.54321" rx="0.942901" stroke="#252536" stroke-width="1.2"/>
<path d="M19.1699 23.3148V22.3719C19.1699 21.8512 18.7477 21.429 18.227 21.429H16.3412M13.5125 23.3148V22.3719C13.5125 21.8512 13.9346 21.429 14.4554 21.429H16.3412M16.3412 21.429V20.0146" stroke="#252536" stroke-width="1.2"/>
<path d="M29 24.7594V24.0372M28.2778 23.3149H3.72222C3.32335 23.3149 3 23.6383 3 24.0372V24.7594V26.4446H3.72222H24.4259H25.1481C25.547 26.4446 25.8704 26.7679 25.8704 27.1668V27.889V37.2779C25.8704 37.6768 26.1937 38.0001 26.5926 38.0001H28.2778C28.6767 38.0001 29 37.6768 29 37.2779V24.0372M28.2778 23.3149C28.6767 23.3149 29 23.6383 29 24.0372M28.2778 23.3149H27.5556" stroke="#252536" stroke-width="1.2"/>
</svg>