<svg width="24" height="24" viewBox="0 0 24 24" fill="none" xmlns="http://www.w3.org/2000/svg">
<path d="M20 15.0001C20 19.2551 17.382 21.1221 15.359 21.7511C15.2838 21.776 15.2033 21.7801 15.126 21.7631C14.837 21.6941 14.694 21.3101 14.902 21.0121C15.782 19.7461 16.8 17.8161 16.8 16.0001C16.8 14.0501 15.156 11.7471 13.872 10.3261C13.579 10.0021 13.067 10.2161 13.051 10.6541C12.998 12.1041 12.769 14.0421 11.783 15.5621C11.7481 15.6189 11.6999 15.6663 11.6426 15.7004C11.5852 15.7345 11.5205 15.7541 11.4539 15.7577C11.3874 15.7612 11.3209 15.7485 11.2603 15.7207C11.1997 15.6929 11.1468 15.6508 11.106 15.5981C10.798 15.2081 10.49 14.7271 10.182 14.3461C10.016 14.1421 9.716 14.1391 9.525 14.3201C8.778 15.0271 7.733 16.1291 7.733 17.5001C7.733 18.4301 8.093 19.4051 8.5 20.1901C8.702 20.5801 8.397 21.0411 8.018 20.9601C7.9755 20.9501 7.93448 20.9347 7.896 20.9141C6.113 19.9801 4 18.0841 4 15.0001C4 11.8541 8.31 7.49508 9.956 3.37708C10.216 2.72708 11.016 2.42208 11.573 2.84608C14.943 5.41408 20 10.3781 20 15.0001Z" fill="#DA0916"/>
</svg>