<svg width="32" height="50" viewBox="0 0 32 50" fill="none" xmlns="http://www.w3.org/2000/svg">
<path d="M22.8293 26.1177V28.3941H9.17078V26.1177H22.8293Z" stroke="#252536" stroke-width="1.2" stroke-miterlimit="10" stroke-linecap="round" stroke-linejoin="round"/>
<path d="M17.1382 28.394V37.0729H14.8618V28.394" stroke="#252536" stroke-width="1.2" stroke-miterlimit="10" stroke-linejoin="round"/>
<path d="M28.3616 31.6964L28.1426 32.4222C28.072 32.6562 27.9278 32.8613 27.7316 33.007C27.5353 33.1528 27.2974 33.2315 27.0529 33.2315H21.9521C21.3347 33.2315 20.8091 32.7512 20.7875 32.1343C20.7648 31.4867 21.2825 30.9551 21.9249 30.9551H26.2075L27.7719 25.7728C27.9535 25.1712 28.5886 24.8309 29.1907 25.0125C29.7923 25.194 30.1332 25.8291 29.951 26.4307L29.7359 27.1435" stroke="#252536" stroke-width="1.2" stroke-miterlimit="10" stroke-linecap="round" stroke-linejoin="round"/>
<path d="M23.2829 33.2315L21.0651 37.073M28.2056 37.073L25.9878 33.2315M8.71715 33.2315L10.935 37.073M3.79438 37.073L6.01219 33.2315M2.04904 26.4307L3.85755 32.4222C3.9282 32.6562 4.07231 32.8613 4.26855 33.007C4.4648 33.1528 4.70276 33.2315 4.94722 33.2315H10.0481C10.6654 33.2315 11.1911 32.7512 11.2127 32.1343C11.2354 31.4867 10.7176 30.9551 10.0752 30.9551H5.79268L4.22821 25.7728C4.04667 25.1712 3.41154 24.8309 2.80943 25.0125C2.20782 25.194 1.86693 25.8291 2.04904 26.4307Z" stroke="#252536" stroke-width="1.2" stroke-miterlimit="10" stroke-linecap="round" stroke-linejoin="round"/>
<path d="M16 26.1178V18.6184" stroke="#252536" stroke-width="1.2" stroke-miterlimit="10" stroke-linejoin="round"/>
<path d="M6.04053 18.6183L15.9999 12.9272L25.9593 18.6183H6.04053Z" stroke="#252536" stroke-width="1.2" stroke-miterlimit="10" stroke-linecap="round" stroke-linejoin="round"/>
<path d="M12.6801 18.6183L15.9998 12.9272L19.3196 18.6183" stroke="#252536" stroke-width="1.2" stroke-miterlimit="10" stroke-linejoin="round"/>
</svg>