<svg width="32" height="50" viewBox="0 0 32 50" fill="none" xmlns="http://www.w3.org/2000/svg">
<path d="M3.95935 37.4446V34.143H23.2232M24.9314 37.4446H7.06848M25.4109 34.143H28.0405V37.4446M6.09391 12.5239H3.95935V11.2753C3.95935 10.688 4.43548 10.2119 5.02273 10.2119H26.9771C27.5644 10.2119 28.0405 10.688 28.0405 11.2753V12.5239H8.28166H6.09391Z" stroke="#252536" stroke-width="1.2" stroke-miterlimit="10" stroke-linecap="round" stroke-linejoin="round"/>
<path d="M5.54549 40.5312C6.57284 40.5312 7.40568 39.6983 7.40568 38.671C7.40568 37.6436 6.57284 36.8108 5.54549 36.8108C4.51814 36.8108 3.6853 37.6436 3.6853 38.671C3.6853 39.6983 4.51814 40.5312 5.54549 40.5312Z" stroke="#252536" stroke-width="1.2" stroke-miterlimit="10" stroke-linecap="round" stroke-linejoin="round"/>
<path d="M26.4544 40.5312C27.4818 40.5312 28.3146 39.6983 28.3146 38.671C28.3146 37.6436 27.4818 36.8108 26.4544 36.8108C25.4271 36.8108 24.5942 37.6436 24.5942 38.671C24.5942 39.6983 25.4271 40.5312 26.4544 40.5312Z" stroke="#252536" stroke-width="1.2" stroke-miterlimit="10" stroke-linecap="round" stroke-linejoin="round"/>
<path d="M15.9491 16.0291C15.3395 15.4585 14.5201 15.1091 13.6193 15.1091H9.57602C7.69264 15.1091 6.16589 16.6359 6.16589 18.5193V19.8987C6.16589 20.1237 6.34827 20.3061 6.57333 20.3061H8.23139V25.2281C8.23139 25.4531 8.41377 25.6356 8.63883 25.6356H14.5566C14.7816 25.6356 14.964 25.4532 14.964 25.2281V22.0652" stroke="#252536" stroke-width="1.2" stroke-miterlimit="10" stroke-linecap="round" stroke-linejoin="round"/>
<path d="M8.23145 20.3062V18.6741M14.964 20.3062V18.6741M11.5978 9.46875V15.1093M20.4021 9.46875V15.1093M11.5984 17.4709H11.5971C10.808 17.4709 10.1683 16.8312 10.1683 16.042V15.1093H13.0272V16.042C13.0272 16.8311 12.3875 17.4709 11.5984 17.4709ZM22.4238 15.1093H18.3805C16.4971 15.1093 14.9704 16.636 14.9704 18.5194V22.3991C14.9704 22.6241 15.1528 22.8065 15.3778 22.8065H17.0359V30.9669C17.0359 31.1919 17.2183 31.3744 17.4433 31.3744H23.3611C23.5861 31.3744 23.7685 31.192 23.7685 30.9669V22.8065H25.4265C25.6515 22.8065 25.8339 22.6241 25.8339 22.3991V18.5194C25.8339 16.636 24.3071 15.1093 22.4238 15.1093Z" stroke="#252536" stroke-width="1.2" stroke-miterlimit="10" stroke-linecap="round" stroke-linejoin="round"/>
<path d="M17.0359 22.8066V18.6742M23.7684 22.8066V18.6742M3.95935 34.143V12.5239M28.0405 34.143V12.5239M20.4027 17.471H20.4015C19.6123 17.471 18.9726 16.8313 18.9726 16.0421V15.1094H21.8315V16.0421C21.8316 16.8312 21.1919 17.471 20.4027 17.471Z" stroke="#252536" stroke-width="1.2" stroke-miterlimit="10" stroke-linecap="round" stroke-linejoin="round"/>
</svg>