<svg width="36" height="37" viewBox="0 0 36 37" fill="none" xmlns="http://www.w3.org/2000/svg">
<path d="M18 8.75146L21 11.7515" stroke="#616175" stroke-width="2" stroke-linecap="round"/>
<path d="M18 8.74998L17.19 9.52998C17.2949 9.63886 17.4208 9.72546 17.5599 9.78462C17.6991 9.84377 17.8488 9.87426 18 9.87426C18.1512 9.87426 18.3009 9.84377 18.4401 9.78462C18.5792 9.72546 18.7051 9.63886 18.81 9.52998L18 8.74998ZM14.139 27.983C11.865 26.1905 9.3795 24.44 7.407 22.22C5.475 20.042 4.125 17.5025 4.125 14.2055H1.875C1.875 18.2045 3.54 21.2555 5.7255 23.714C7.8705 26.129 10.6065 28.064 12.7455 29.75L14.139 27.983ZM4.125 14.2055C4.125 10.9805 5.9475 8.27448 8.436 7.13598C10.854 6.03048 14.103 6.32298 17.19 9.52998L18.81 7.97148C15.15 4.16598 10.896 3.53748 7.5 5.08998C4.179 6.60948 1.875 10.1375 1.875 14.2055H4.125ZM12.7455 29.75C13.515 30.356 14.34 31.001 15.1755 31.49C16.011 31.979 16.965 32.375 18 32.375V30.125C17.535 30.125 16.989 29.945 16.311 29.5475C15.6315 29.1515 14.928 28.6055 14.139 27.983L12.7455 29.75ZM23.2545 29.75C25.3935 28.0625 28.1295 26.1305 30.2745 23.714C32.46 21.254 34.125 18.2045 34.125 14.2055H31.875C31.875 17.5025 30.525 20.042 28.593 22.22C26.6205 24.44 24.135 26.1905 21.861 27.983L23.2545 29.75ZM34.125 14.2055C34.125 10.1375 31.8225 6.60948 28.5 5.08998C25.104 3.53748 20.853 4.16598 17.19 7.96998L18.81 9.52998C21.897 6.32448 25.146 6.03048 27.564 7.13598C30.0525 8.27448 31.875 10.979 31.875 14.2055H34.125ZM21.861 27.983C21.072 28.6055 20.3685 29.1515 19.689 29.5475C19.0095 29.9435 18.465 30.125 18 30.125V32.375C19.035 32.375 19.989 31.9775 20.8245 31.49C21.6615 31.001 22.485 30.356 23.2545 29.75L21.861 27.983Z" fill="#252536"/>
</svg>