<svg width="32" height="50" viewBox="0 0 32 50" fill="none" xmlns="http://www.w3.org/2000/svg">
<path fill-rule="evenodd" clip-rule="evenodd" d="M22.516 13.5C22.1694 13.86 22.016 14.3187 22.016 14.5947V18.6667C22.016 18.8435 21.9458 19.0131 21.8208 19.1381C21.6958 19.2631 21.5262 19.3333 21.3494 19.3333C21.1726 19.3333 21.003 19.2631 20.878 19.1381C20.7529 19.0131 20.6827 18.8435 20.6827 18.6667V14.5947C20.6827 13.9427 20.992 13.1627 21.5547 12.576C22.1414 11.9653 23.0267 11.5467 24.1507 11.696C25.224 11.84 25.9187 12.34 26.3027 12.98C26.668 13.5893 26.7094 14.2547 26.636 14.7027C26.6014 14.8714 26.5028 15.0202 26.3609 15.1179C26.2191 15.2155 26.0449 15.2545 25.8749 15.2265C25.7049 15.1986 25.5524 15.106 25.4492 14.9681C25.346 14.8301 25.3002 14.6576 25.3214 14.4867C25.3608 14.2024 25.3035 13.9131 25.1587 13.6653C25.0054 13.4093 24.6894 13.1133 23.9747 13.0173C23.3107 12.9293 22.8387 13.164 22.516 13.5ZM4.06537 18.3333C4.06537 18.1565 4.13561 17.987 4.26064 17.8619C4.38566 17.7369 4.55523 17.6667 4.73204 17.6667H7.46671C7.64352 17.6667 7.81309 17.7369 7.93811 17.8619C8.06314 17.987 8.13337 18.1565 8.13337 18.3333C8.13337 18.5102 8.06314 18.6797 7.93811 18.8047C7.81309 18.9298 7.64352 19 7.46671 19H4.73337C4.55656 19 4.38699 18.9298 4.26197 18.8047C4.13695 18.6797 4.06537 18.5102 4.06537 18.3333ZM9.52804 18.3333C9.52804 18.1565 9.59828 17.987 9.7233 17.8619C9.84833 17.7369 10.0179 17.6667 10.1947 17.6667H12.9267C13.1035 17.6667 13.2731 17.7369 13.3981 17.8619C13.5231 17.987 13.5934 18.1565 13.5934 18.3333C13.5934 18.5102 13.5231 18.6797 13.3981 18.8047C13.2731 18.9298 13.1035 19 12.9267 19H10.1947C10.0179 19 9.84833 18.9298 9.7233 18.8047C9.59828 18.6797 9.52804 18.5102 9.52804 18.3333ZM1.33337 21.6667C1.33337 21.1362 1.54409 20.6275 1.91916 20.2525C2.29423 19.8774 2.80294 19.6667 3.33337 19.6667H28.6667C29.1971 19.6667 29.7058 19.8774 30.0809 20.2525C30.456 20.6275 30.6667 21.1362 30.6667 21.6667V35.6667C30.6667 36.1971 30.456 36.7058 30.0809 37.0809C29.7058 37.456 29.1971 37.6667 28.6667 37.6667H3.33337C2.80294 37.6667 2.29423 37.456 1.91916 37.0809C1.54409 36.7058 1.33337 36.1971 1.33337 35.6667V21.6667ZM2.66671 29.7147L13.6587 29.7093C13.8355 29.7093 14.0051 29.6391 14.1301 29.5141C14.2551 29.3891 14.3254 29.2195 14.3254 29.0427C14.3254 28.8659 14.2551 28.6963 14.1301 28.5713C14.0051 28.4462 13.8355 28.376 13.6587 28.376L2.66671 28.3813V21.6667C2.66671 21.4899 2.73695 21.3203 2.86197 21.1953C2.98699 21.0702 3.15656 21 3.33337 21H28.6667C28.8435 21 29.0131 21.0702 29.1381 21.1953C29.2631 21.3203 29.3334 21.4899 29.3334 21.6667V35.6667C29.3334 35.8435 29.2631 36.0131 29.1381 36.1381C29.0131 36.2631 28.8435 36.3333 28.6667 36.3333H3.33337C3.15656 36.3333 2.98699 36.2631 2.86197 36.1381C2.73695 36.0131 2.66671 35.8435 2.66671 35.6667V29.7147ZM16.0094 22C16.1862 22 16.3558 22.0702 16.4808 22.1953C16.6058 22.3203 16.676 22.4899 16.676 22.6667V34.6667C16.676 34.8435 16.6058 35.0131 16.4808 35.1381C16.3558 35.2631 16.1862 35.3333 16.0094 35.3333C15.8326 35.3333 15.663 35.2631 15.538 35.1381C15.4129 35.0131 15.3427 34.8435 15.3427 34.6667V22.6667C15.3427 22.4899 15.4129 22.3203 15.538 22.1953C15.663 22.0702 15.8326 22 16.0094 22ZM7.33337 24.6947C7.33337 24.5179 7.40361 24.3483 7.52864 24.2233C7.65366 24.0982 7.82323 24.028 8.00004 24.028H10C10.1769 24.028 10.3464 24.0982 10.4714 24.2233C10.5965 24.3483 10.6667 24.5179 10.6667 24.6947C10.6667 24.8715 10.5965 25.0411 10.4714 25.1661C10.3464 25.2911 10.1769 25.3613 10 25.3613H8.00004C7.82323 25.3613 7.65366 25.2911 7.52864 25.1661C7.40361 25.0411 7.33337 24.8715 7.33337 24.6947ZM18.5374 24.6947C18.5374 24.5179 18.6076 24.3483 18.7326 24.2233C18.8577 24.0982 19.0272 24.028 19.204 24.028H21.204C21.3809 24.028 21.5504 24.0982 21.6754 24.2233C21.8005 24.3483 21.8707 24.5179 21.8707 24.6947C21.8707 24.8715 21.8005 25.0411 21.6754 25.1661C21.5504 25.2911 21.3809 25.3613 21.204 25.3613H19.204C19.0272 25.3613 18.8577 25.2911 18.7326 25.1661C18.6076 25.0411 18.5374 24.8715 18.5374 24.6947ZM7.33337 32.6947C7.33337 32.5179 7.40361 32.3483 7.52864 32.2233C7.65366 32.0982 7.82323 32.028 8.00004 32.028H10C10.1769 32.028 10.3464 32.0982 10.4714 32.2233C10.5965 32.3483 10.6667 32.5179 10.6667 32.6947C10.6667 32.8715 10.5965 33.0411 10.4714 33.1661C10.3464 33.2911 10.1769 33.3613 10 33.3613H8.00004C7.82323 33.3613 7.65366 33.2911 7.52864 33.1661C7.40361 33.0411 7.33337 32.8715 7.33337 32.6947Z" fill="#252536"/>
</svg>