<svg width="56" height="56" viewBox="0 0 56 56" fill="none" xmlns="http://www.w3.org/2000/svg">
<g filter="url(#filter0_d_1_8619)">
<rect width="48" height="48" rx="24" transform="matrix(-1 0 0 1 52 2)" fill="white"/>
<path opacity="0.6" d="M28 19.4875L30.2326 21.8385" stroke="#252536" stroke-width="1.5" stroke-linecap="round"/>
<path d="M28 19.4862L27.3972 20.0975C27.4753 20.1828 27.5689 20.2507 27.6725 20.297C27.7761 20.3434 27.8875 20.3673 28 20.3673C28.1125 20.3673 28.2239 20.3434 28.3275 20.297C28.4311 20.2507 28.5247 20.1828 28.6028 20.0975L28 19.4862ZM25.1267 34.5582C23.4344 33.1535 21.5847 31.7817 20.1168 30.042C18.6791 28.3352 17.6744 26.3451 17.6744 23.7614H16C16 26.8953 17.2391 29.2862 18.8655 31.2128C20.4618 33.1053 22.4979 34.6217 24.0897 35.9429L25.1267 34.5582ZM17.6744 23.7614C17.6744 21.2342 19.0307 19.1136 20.8826 18.2214C22.682 17.3551 25.0999 17.5843 27.3972 20.0975L28.6028 18.8762C25.8791 15.894 22.7133 15.4015 20.186 16.6181C17.7146 17.8088 16 20.5736 16 23.7614H17.6744ZM24.0897 35.9429C24.6623 36.4178 25.2763 36.9233 25.898 37.3065C26.5198 37.6897 27.2298 38 28 38V36.2368C27.654 36.2368 27.2476 36.0957 26.7431 35.7842C26.2374 35.4739 25.7139 35.046 25.1267 34.5582L24.0897 35.9429ZM31.9103 35.9429C33.5021 34.6205 35.5382 33.1065 37.1345 31.2128C38.7609 29.285 40 26.8953 40 23.7614H38.3256C38.3256 26.3451 37.3209 28.3352 35.8832 30.042C34.4153 31.7817 32.5656 33.1535 30.8733 34.5582L31.9103 35.9429ZM40 23.7614C40 20.5736 38.2865 17.8088 35.814 16.6181C33.2867 15.4015 30.1232 15.894 27.3972 18.875L28.6028 20.0975C30.9001 17.5855 33.318 17.3551 35.1174 18.2214C36.9693 19.1136 38.3256 21.233 38.3256 23.7614H40ZM30.8733 34.5582C30.2861 35.046 29.7626 35.4739 29.2569 35.7842C28.7513 36.0946 28.346 36.2368 28 36.2368V38C28.7702 38 29.4802 37.6885 30.102 37.3065C30.7248 36.9233 31.3377 36.4178 31.9103 35.9429L30.8733 34.5582Z" fill="#252536"/>
</g>
<defs>
<filter id="filter0_d_1_8619" x="0" y="0" width="56" height="56" filterUnits="userSpaceOnUse" color-interpolation-filters="sRGB">
<feFlood flood-opacity="0" result="BackgroundImageFix"/>
<feColorMatrix in="SourceAlpha" type="matrix" values="0 0 0 0 0 0 0 0 0 0 0 0 0 0 0 0 0 0 127 0" result="hardAlpha"/>
<feOffset dy="2"/>
<feGaussianBlur stdDeviation="2"/>
<feComposite in2="hardAlpha" operator="out"/>
<feColorMatrix type="matrix" values="0 0 0 0 0 0 0 0 0 0 0 0 0 0 0 0 0 0 0.1 0"/>
<feBlend mode="normal" in2="BackgroundImageFix" result="effect1_dropShadow_1_8619"/>
<feBlend mode="normal" in="SourceGraphic" in2="effect1_dropShadow_1_8619" result="shape"/>
</filter>
</defs>
</svg>