<svg width="32" height="50" viewBox="0 0 32 50" fill="none" xmlns="http://www.w3.org/2000/svg">
<mask id="path-1-inside-1_1_2606" fill="white">
<path d="M21.5974 10.4026C21.052 10.5373 20.5574 10.9013 20.288 11.364C20.2174 11.4866 19.6974 13.1146 19.08 15.1493C18.0054 18.6853 17.996 18.7213 18.0187 19.084C18.0494 19.5893 18.1987 19.9533 18.5187 20.2986C18.8054 20.608 19.1507 20.82 19.5374 20.9226C19.908 21.0213 28.764 21.0213 29.1334 20.9226C29.7334 20.7626 30.2134 20.3586 30.4867 19.78C30.6267 19.484 30.6414 19.408 30.6387 19.0106C30.636 18.5813 30.6134 18.4946 29.58 15.112C28.9987 13.2093 28.4747 11.552 28.416 11.4293C28.1907 10.9626 27.572 10.5053 27.0094 10.388C26.6307 10.308 21.9254 10.3213 21.5974 10.4026ZM26.9494 11.7773C27.0427 11.832 27.156 11.9426 27.2027 12.0213C27.2707 12.1413 29.2107 18.4533 29.3174 18.9026C29.3387 18.9951 29.3169 19.1137 29.252 19.2586C29.227 19.3303 29.1866 19.3956 29.1336 19.45C29.0806 19.5043 29.0164 19.5464 28.9454 19.5733C28.7427 19.6653 28.5907 19.6693 24.3494 19.6706C20.424 19.6706 19.9414 19.6626 19.7654 19.592C19.6602 19.5514 19.5667 19.4853 19.4934 19.3997C19.4201 19.314 19.3692 19.2115 19.3454 19.1013C19.3054 18.8866 21.3854 12.064 21.54 11.9093C21.788 11.66 21.856 11.6546 24.4094 11.6666C26.6947 11.6773 26.7867 11.6813 26.9494 11.7773ZM8.05604 19.704C6.91738 19.8466 5.77871 20.416 5.07204 21.1973C4.47848 21.8321 4.11021 22.6445 4.02404 23.5093C3.96271 24.0506 3.96004 25.5426 4.02004 25.8026C4.04812 25.9361 4.11812 26.0571 4.21982 26.148C4.32151 26.2389 4.44959 26.295 4.58538 26.308C4.88138 26.3413 5.09471 26.2346 5.23871 25.9786C5.33604 25.8053 5.34271 25.7253 5.34271 24.7C5.34404 23.4746 5.38804 23.1773 5.64671 22.6826C5.88804 22.22 6.49204 21.6466 7.00404 21.3946C7.74538 21.0293 7.76804 21.0266 10.3654 21.004C11.792 20.992 12.8334 21.0026 13.088 21.0346C14.3974 21.1946 15.408 21.928 15.84 23.0306C15.964 23.3506 15.9707 23.4066 15.9974 24.6333C16.0214 25.7733 16.0334 25.9186 16.1174 26.0413C16.3867 26.4386 17.028 26.4 17.248 25.9746C17.3174 25.84 17.3254 25.648 17.3094 24.4693C17.2867 22.952 17.2614 22.8106 16.876 22.0666C16.2507 20.8626 14.8627 19.928 13.3907 19.724C13.04 19.6746 8.42538 19.6573 8.05738 19.704H8.05604ZM23.9507 22.4626C23.6574 22.6933 23.676 22.0986 23.676 31C23.676 38.804 23.68 39.1626 23.7654 39.3213C23.8247 39.4214 23.9078 39.5053 24.0074 39.5655C24.107 39.6258 24.2198 39.6605 24.336 39.6666C24.5494 39.6666 24.8027 39.5133 24.9067 39.3213C24.992 39.1626 24.996 38.804 24.996 31C24.996 22.0573 25.016 22.6813 24.708 22.4613C24.512 22.3213 24.128 22.3226 23.9507 22.4626ZM3.36938 27.0813C3.00975 27.1771 2.67308 27.3442 2.37942 27.5728C2.08575 27.8015 1.8411 28.0868 1.66004 28.412C1.33338 29.032 1.32671 29.116 1.34538 31.8626C1.36138 34.1813 1.36804 34.3293 1.46538 34.6106C1.65338 35.1733 1.92138 35.612 2.31204 36C2.90804 36.5933 3.50538 36.88 4.34271 36.976C4.93204 37.0426 16.4054 37.044 16.9934 36.976C17.7676 36.9037 18.4904 36.5565 19.0307 35.9973C19.412 35.6106 19.672 35.1853 19.8507 34.656L19.9814 34.264L19.9987 31.872C20.012 29.8053 20.004 29.432 19.936 29.124C19.8344 28.6207 19.5791 28.1613 19.2054 27.8093C18.8054 27.4106 18.3934 27.1773 17.92 27.076C17.48 26.9826 16.4574 26.984 16.0534 27.08C15.6737 27.173 15.3189 27.3479 15.0139 27.5925C14.709 27.8371 14.4612 28.1455 14.288 28.496C14.0347 29.0266 13.996 29.2893 13.996 30.5573V31.6493H7.34671V30.5613C7.34671 29.3333 7.29471 28.98 7.04538 28.4706C6.71604 27.7973 5.91471 27.1906 5.17471 27.0573C4.76938 26.984 3.71471 26.9986 3.36938 27.0813ZM5.28538 28.4946C5.53338 28.6315 5.73338 28.8355 5.88538 29.1066C5.93871 29.2013 5.95871 29.5933 5.97871 30.8666C6.00538 32.7293 6.01071 32.7533 6.38404 32.9226C6.58004 33.012 6.76671 33.016 10.66 33.0173C15.0707 33.0173 14.9147 33.0266 15.1694 32.752L15.2907 32.6186L15.3174 30.9973L15.34 29.376L15.4774 29.0973C15.624 28.8 15.792 28.6306 16.1174 28.456C16.296 28.36 16.3907 28.3493 17.0027 28.3493C17.6147 28.3493 17.7094 28.36 17.888 28.456C18.208 28.628 18.3814 28.7986 18.5174 29.076L18.644 29.3346L18.6307 31.7746L18.6174 34.216L18.472 34.5066C18.2134 35.0346 17.756 35.4266 17.22 35.5813C16.9774 35.6506 16.284 35.6573 10.5707 35.6466L4.19338 35.6333L3.91071 35.5186C3.30271 35.2733 2.80404 34.6253 2.69738 33.9386C2.66671 33.744 2.65338 32.7746 2.66271 31.472L2.67738 29.3266L2.79338 29.1066C2.91338 28.8506 3.11338 28.64 3.36271 28.508C3.66671 28.3493 3.80804 28.328 4.43738 28.3413C4.98138 28.352 5.04404 28.364 5.28538 28.4946ZM2.96671 37.1186C2.70004 37.2826 2.65338 37.46 2.65338 38.3293C2.65338 39.204 2.69604 39.3586 2.99071 39.556C3.08318 39.6212 3.19255 39.6583 3.30563 39.6628C3.41872 39.6673 3.53068 39.639 3.62804 39.5813C3.97471 39.4053 3.99738 39.3226 3.99738 38.3546C3.99738 37.404 3.96538 37.276 3.67871 37.1066C3.56716 37.0535 3.44483 37.027 3.3213 37.029C3.19777 37.0311 3.0764 37.0618 2.96671 37.1186ZM17.9667 37.1253C17.704 37.284 17.6627 37.456 17.6627 38.3573C17.6627 39.0653 17.6734 39.1706 17.76 39.3133C18.0267 39.748 18.632 39.776 18.8827 39.364C18.9734 39.2173 18.9814 39.1186 18.9827 38.304V37.4066L18.792 37.216C18.624 37.048 18.576 37.0266 18.3654 37.0266C18.2257 37.024 18.0878 37.0581 17.9654 37.1253H17.9667Z"/>
</mask>
<path d="M21.5974 10.4026C21.052 10.5373 20.5574 10.9013 20.288 11.364C20.2174 11.4866 19.6974 13.1146 19.08 15.1493C18.0054 18.6853 17.996 18.7213 18.0187 19.084C18.0494 19.5893 18.1987 19.9533 18.5187 20.2986C18.8054 20.608 19.1507 20.82 19.5374 20.9226C19.908 21.0213 28.764 21.0213 29.1334 20.9226C29.7334 20.7626 30.2134 20.3586 30.4867 19.78C30.6267 19.484 30.6414 19.408 30.6387 19.0106C30.636 18.5813 30.6134 18.4946 29.58 15.112C28.9987 13.2093 28.4747 11.552 28.416 11.4293C28.1907 10.9626 27.572 10.5053 27.0094 10.388C26.6307 10.308 21.9254 10.3213 21.5974 10.4026ZM26.9494 11.7773C27.0427 11.832 27.156 11.9426 27.2027 12.0213C27.2707 12.1413 29.2107 18.4533 29.3174 18.9026C29.3387 18.9951 29.3169 19.1137 29.252 19.2586C29.227 19.3303 29.1866 19.3956 29.1336 19.45C29.0806 19.5043 29.0164 19.5464 28.9454 19.5733C28.7427 19.6653 28.5907 19.6693 24.3494 19.6706C20.424 19.6706 19.9414 19.6626 19.7654 19.592C19.6602 19.5514 19.5667 19.4853 19.4934 19.3997C19.4201 19.314 19.3692 19.2115 19.3454 19.1013C19.3054 18.8866 21.3854 12.064 21.54 11.9093C21.788 11.66 21.856 11.6546 24.4094 11.6666C26.6947 11.6773 26.7867 11.6813 26.9494 11.7773ZM8.05604 19.704C6.91738 19.8466 5.77871 20.416 5.07204 21.1973C4.47848 21.8321 4.11021 22.6445 4.02404 23.5093C3.96271 24.0506 3.96004 25.5426 4.02004 25.8026C4.04812 25.9361 4.11812 26.0571 4.21982 26.148C4.32151 26.2389 4.44959 26.295 4.58538 26.308C4.88138 26.3413 5.09471 26.2346 5.23871 25.9786C5.33604 25.8053 5.34271 25.7253 5.34271 24.7C5.34404 23.4746 5.38804 23.1773 5.64671 22.6826C5.88804 22.22 6.49204 21.6466 7.00404 21.3946C7.74538 21.0293 7.76804 21.0266 10.3654 21.004C11.792 20.992 12.8334 21.0026 13.088 21.0346C14.3974 21.1946 15.408 21.928 15.84 23.0306C15.964 23.3506 15.9707 23.4066 15.9974 24.6333C16.0214 25.7733 16.0334 25.9186 16.1174 26.0413C16.3867 26.4386 17.028 26.4 17.248 25.9746C17.3174 25.84 17.3254 25.648 17.3094 24.4693C17.2867 22.952 17.2614 22.8106 16.876 22.0666C16.2507 20.8626 14.8627 19.928 13.3907 19.724C13.04 19.6746 8.42538 19.6573 8.05738 19.704H8.05604ZM23.9507 22.4626C23.6574 22.6933 23.676 22.0986 23.676 31C23.676 38.804 23.68 39.1626 23.7654 39.3213C23.8247 39.4214 23.9078 39.5053 24.0074 39.5655C24.107 39.6258 24.2198 39.6605 24.336 39.6666C24.5494 39.6666 24.8027 39.5133 24.9067 39.3213C24.992 39.1626 24.996 38.804 24.996 31C24.996 22.0573 25.016 22.6813 24.708 22.4613C24.512 22.3213 24.128 22.3226 23.9507 22.4626ZM3.36938 27.0813C3.00975 27.1771 2.67308 27.3442 2.37942 27.5728C2.08575 27.8015 1.8411 28.0868 1.66004 28.412C1.33338 29.032 1.32671 29.116 1.34538 31.8626C1.36138 34.1813 1.36804 34.3293 1.46538 34.6106C1.65338 35.1733 1.92138 35.612 2.31204 36C2.90804 36.5933 3.50538 36.88 4.34271 36.976C4.93204 37.0426 16.4054 37.044 16.9934 36.976C17.7676 36.9037 18.4904 36.5565 19.0307 35.9973C19.412 35.6106 19.672 35.1853 19.8507 34.656L19.9814 34.264L19.9987 31.872C20.012 29.8053 20.004 29.432 19.936 29.124C19.8344 28.6207 19.5791 28.1613 19.2054 27.8093C18.8054 27.4106 18.3934 27.1773 17.92 27.076C17.48 26.9826 16.4574 26.984 16.0534 27.08C15.6737 27.173 15.3189 27.3479 15.0139 27.5925C14.709 27.8371 14.4612 28.1455 14.288 28.496C14.0347 29.0266 13.996 29.2893 13.996 30.5573V31.6493H7.34671V30.5613C7.34671 29.3333 7.29471 28.98 7.04538 28.4706C6.71604 27.7973 5.91471 27.1906 5.17471 27.0573C4.76938 26.984 3.71471 26.9986 3.36938 27.0813ZM5.28538 28.4946C5.53338 28.6315 5.73338 28.8355 5.88538 29.1066C5.93871 29.2013 5.95871 29.5933 5.97871 30.8666C6.00538 32.7293 6.01071 32.7533 6.38404 32.9226C6.58004 33.012 6.76671 33.016 10.66 33.0173C15.0707 33.0173 14.9147 33.0266 15.1694 32.752L15.2907 32.6186L15.3174 30.9973L15.34 29.376L15.4774 29.0973C15.624 28.8 15.792 28.6306 16.1174 28.456C16.296 28.36 16.3907 28.3493 17.0027 28.3493C17.6147 28.3493 17.7094 28.36 17.888 28.456C18.208 28.628 18.3814 28.7986 18.5174 29.076L18.644 29.3346L18.6307 31.7746L18.6174 34.216L18.472 34.5066C18.2134 35.0346 17.756 35.4266 17.22 35.5813C16.9774 35.6506 16.284 35.6573 10.5707 35.6466L4.19338 35.6333L3.91071 35.5186C3.30271 35.2733 2.80404 34.6253 2.69738 33.9386C2.66671 33.744 2.65338 32.7746 2.66271 31.472L2.67738 29.3266L2.79338 29.1066C2.91338 28.8506 3.11338 28.64 3.36271 28.508C3.66671 28.3493 3.80804 28.328 4.43738 28.3413C4.98138 28.352 5.04404 28.364 5.28538 28.4946ZM2.96671 37.1186C2.70004 37.2826 2.65338 37.46 2.65338 38.3293C2.65338 39.204 2.69604 39.3586 2.99071 39.556C3.08318 39.6212 3.19255 39.6583 3.30563 39.6628C3.41872 39.6673 3.53068 39.639 3.62804 39.5813C3.97471 39.4053 3.99738 39.3226 3.99738 38.3546C3.99738 37.404 3.96538 37.276 3.67871 37.1066C3.56716 37.0535 3.44483 37.027 3.3213 37.029C3.19777 37.0311 3.0764 37.0618 2.96671 37.1186ZM17.9667 37.1253C17.704 37.284 17.6627 37.456 17.6627 38.3573C17.6627 39.0653 17.6734 39.1706 17.76 39.3133C18.0267 39.748 18.632 39.776 18.8827 39.364C18.9734 39.2173 18.9814 39.1186 18.9827 38.304V37.4066L18.792 37.216C18.624 37.048 18.576 37.0266 18.3654 37.0266C18.2257 37.024 18.0878 37.0581 17.9654 37.1253H17.9667Z" stroke="#252536" stroke-width="2" mask="url(#path-1-inside-1_1_2606)"/>
</svg>