<svg width="32" height="50" viewBox="0 0 32 50" fill="none" xmlns="http://www.w3.org/2000/svg">
<path d="M9.37492 11.8533H6.19355C5.7793 11.8533 5.44043 12.1922 5.44043 12.6064V17.3124V19.625V37.9881C5.44043 38.4023 5.7793 38.7412 6.19355 38.7412H25.8062C26.2205 38.7412 26.5594 38.4023 26.5594 37.9881V12.6064C26.5594 12.1922 26.2205 11.8533 25.8062 11.8533H22.8124" stroke="#252536" stroke-width="1.2" stroke-miterlimit="10" stroke-linecap="round" stroke-linejoin="round"/>
<path d="M24.7658 40.5312H7.23389V38.7323H24.7658V40.5312ZM24.5738 24.3042H7.42601V13.8245H24.5738V24.3042Z" stroke="#252536" stroke-width="1.2" stroke-miterlimit="10" stroke-linecap="round" stroke-linejoin="round"/>
<path d="M24.5624 29.125C24.5663 29.125 24.57 29.1256 24.5739 29.1256M24.5624 29.125L24.5739 29.1256M24.5624 29.125L24.5739 31.6247M24.5624 29.125V31.625M24.5739 29.1256V26.2185H7.42603V36.6982H24.5739V31.6247M24.5739 29.1256V31.6247M24.5739 29.1256L24.5624 31.625M24.5739 31.6247C24.57 31.6248 24.5662 31.625 24.5624 31.625M24.5739 31.6247L24.5624 31.625" stroke="#252536" stroke-width="1.2" stroke-miterlimit="10" stroke-linecap="round" stroke-linejoin="round"/>
<path d="M18.4483 31.9758H13.5518C12.2349 31.9758 11.1672 30.9082 11.1672 29.5913L20.8328 29.5912C20.8328 30.9081 19.7652 31.9758 18.4483 31.9758Z" stroke="#252536" stroke-width="1.2" stroke-miterlimit="10" stroke-linecap="round" stroke-linejoin="round"/>
<path d="M18.4483 19.6763H13.5518C12.2349 19.6763 11.1672 18.6086 11.1672 17.2917H20.8328C20.8328 18.6086 19.7652 19.6763 18.4483 19.6763Z" stroke="#252536" stroke-width="1.2" stroke-miterlimit="10" stroke-linecap="round" stroke-linejoin="round"/>
<path d="M22.719 13.8245H9.56421V10.0938C9.56421 9.74866 9.84408 9.46885 10.1892 9.46885H22.094C22.4392 9.46885 22.719 9.74866 22.719 10.0938V13.8245Z" stroke="#252536" stroke-width="1.2" stroke-miterlimit="10" stroke-linecap="round" stroke-linejoin="round"/>
<path d="M22.719 11.4453H14.4418C14.3405 11.4453 14.2407 11.4207 14.151 11.3735C14.0613 11.3263 13.9844 11.258 13.927 11.1745L12.7537 9.46882H22.094C22.4391 9.46882 22.719 9.74869 22.719 10.0938V11.4453Z" stroke="#252536" stroke-width="1.2" stroke-miterlimit="10" stroke-linecap="round" stroke-linejoin="round"/>
</svg>