<svg width="32" height="32" viewBox="0 0 32 32" fill="none" xmlns="http://www.w3.org/2000/svg">
<path fill-rule="evenodd" clip-rule="evenodd" d="M6.57604 5.33333C5.54404 5.33333 4.66671 6.20667 4.66671 7.33467V21.332C4.66671 22.46 5.54404 23.3333 6.57604 23.3333H20V5.33333H6.57604ZM6.57604 4C4.76271 4 3.33337 5.51467 3.33337 7.33467V21.332C3.33337 23.152 4.76271 24.6667 6.57604 24.6667H25.424C27.2374 24.6667 28.6667 23.152 28.6667 21.332V7.33467C28.6667 5.51467 27.236 4 25.424 4H6.57604ZM21.3334 5.33333V23.3333H25.424C26.456 23.3333 27.3334 22.46 27.3334 21.332V7.33467C27.3334 6.20667 26.4574 5.33333 25.424 5.33333H21.3334ZM16 12C16.1769 12 16.3464 12.0702 16.4714 12.1953C16.5965 12.3203 16.6667 12.4899 16.6667 12.6667V16.6667C16.6667 16.8435 16.5965 17.013 16.4714 17.1381C16.3464 17.2631 16.1769 17.3333 16 17.3333C15.8232 17.3333 15.6537 17.2631 15.5286 17.1381C15.4036 17.013 15.3334 16.8435 15.3334 16.6667V12.6667C15.3334 12.4899 15.4036 12.3203 15.5286 12.1953C15.6537 12.0702 15.8232 12 16 12ZM6.33337 25.3333C6.51019 25.3333 6.67975 25.4036 6.80478 25.5286C6.9298 25.6536 7.00004 25.8232 7.00004 26V28C7.00004 28.1768 6.9298 28.3464 6.80478 28.4714C6.67975 28.5964 6.51019 28.6667 6.33337 28.6667C6.15656 28.6667 5.98699 28.5964 5.86197 28.4714C5.73695 28.3464 5.66671 28.1768 5.66671 28V26C5.66671 25.8232 5.73695 25.6536 5.86197 25.5286C5.98699 25.4036 6.15656 25.3333 6.33337 25.3333ZM25.6667 25.3333C25.8435 25.3333 26.0131 25.4036 26.1381 25.5286C26.2631 25.6536 26.3334 25.8232 26.3334 26V28C26.3334 28.1768 26.2631 28.3464 26.1381 28.4714C26.0131 28.5964 25.8435 28.6667 25.6667 28.6667C25.4899 28.6667 25.3203 28.5964 25.1953 28.4714C25.0703 28.3464 25 28.1768 25 28V26C25 25.8232 25.0703 25.6536 25.1953 25.5286C25.3203 25.4036 25.4899 25.3333 25.6667 25.3333Z" fill="#252536"/>
</svg>