<svg width="32" height="50" viewBox="0 0 32 50" fill="none" xmlns="http://www.w3.org/2000/svg">
<path d="M20 30.8548V39M25.8886 30.6929H13.1109C11.9497 30.6929 10.9998 29.7705 10.9998 28.6431C10.9998 27.7217 11.6343 26.9373 12.5 26.6814M12.6667 38.9997V37.8131C12.6667 37.0108 13.3406 36.3566 14.1669 36.3566H25.8332M15.373 14.0489C16.0164 13.403 16.9756 13 18.0422 13H21.9578C23.7578 13 25.2518 14.1476 25.439 15.6738L26 20.2495" stroke="#252536" stroke-width="1.2" stroke-miterlimit="22.926" stroke-linecap="round" stroke-linejoin="round"/>
<path d="M29.1798 24.3494H2.82046C2.77553 24.3494 2.73103 24.3582 2.68951 24.3754C2.648 24.3926 2.61027 24.4178 2.5785 24.4496C2.54672 24.4814 2.52152 24.5191 2.50432 24.5606C2.48712 24.6021 2.47827 24.6466 2.47827 24.6916V26.2974C2.47827 26.3881 2.51432 26.4752 2.5785 26.5394C2.64267 26.6035 2.72971 26.6396 2.82046 26.6396H29.1798C29.2705 26.6396 29.3576 26.6035 29.4217 26.5394C29.4859 26.4752 29.522 26.3881 29.522 26.2974V24.6916C29.522 24.6008 29.4859 24.5138 29.4217 24.4496C29.3576 24.3854 29.2705 24.3494 29.1798 24.3494ZM26.273 26.6396V39.2183C26.273 39.3091 26.309 39.3961 26.3732 39.4603C26.4374 39.5245 26.5244 39.5605 26.6151 39.5605H28.221C28.3117 39.5605 28.3988 39.5245 28.4629 39.4603C28.5271 39.3961 28.5632 39.3091 28.5632 39.2183V26.6396H26.273ZM3.43699 26.6396V39.2183C3.43699 39.3091 3.47304 39.3961 3.53722 39.4603C3.60139 39.5245 3.68843 39.5605 3.77918 39.5605H5.38502C5.47577 39.5605 5.56281 39.5245 5.62698 39.4603C5.69116 39.3961 5.72721 39.3091 5.72721 39.2183V26.6396H3.43699Z" stroke="#252536" stroke-width="1.2" stroke-miterlimit="10" stroke-linecap="round" stroke-linejoin="round"/>
<path d="M10.3935 18.531H11.8718M16.3557 22.1258H5.90966C5.39245 22.1258 4.97314 22.5451 4.97314 23.0623C4.97314 23.7731 5.54936 24.3494 6.26023 24.3494H16.0051C16.7159 24.3494 17.2922 23.7731 17.2922 23.0623C17.2921 22.5451 16.8729 22.1258 16.3557 22.1258ZM24.9453 24.3494H27.8177V21.3008C27.8177 20.8943 27.4851 20.5618 27.0787 20.5618H25.6844C25.2779 20.5618 24.9453 20.8943 24.9453 21.3008L24.9453 24.3494Z" stroke="#252536" stroke-width="1.2" stroke-miterlimit="10" stroke-linecap="round" stroke-linejoin="round"/>
<path d="M9.3681 14.2212H6.37792C5.86071 14.2212 5.44141 14.6405 5.44141 15.1577V21.1894C5.44141 21.7066 5.86071 22.1259 6.37792 22.1259H15.8874C16.4046 22.1259 16.8239 21.7066 16.8239 21.1894V15.1577C16.8239 14.6405 16.4046 14.2212 15.8874 14.2212H11.4189" stroke="#252536" stroke-width="1.2" stroke-miterlimit="10" stroke-linecap="round" stroke-linejoin="round"/>
</svg>