<svg width="32" height="50" viewBox="0 0 32 50" fill="none" xmlns="http://www.w3.org/2000/svg">
<mask id="path-1-inside-1_1_2648" fill="white">
<path d="M9.46671 12.3067C10.0854 11.4947 11.004 11 12 11H20C20.996 11 21.9147 11.4947 22.5334 12.3067C23.1507 13.1173 23.424 14.1733 23.3067 15.2107L22.4494 22.7533C22.3907 23.26 22.3814 23.7747 22.42 24.284C22.4331 24.4605 22.3756 24.6349 22.2601 24.7689C22.1445 24.9029 21.9805 24.9856 21.804 24.9987C21.6276 25.0118 21.4532 24.9542 21.3191 24.8387C21.1851 24.7232 21.1025 24.5591 21.0894 24.3827C21.0442 23.7896 21.0558 23.1935 21.124 22.6027L21.9814 15.0613C22.0657 14.3721 21.8846 13.6765 21.4747 13.116C21.08 12.6 20.5374 12.3333 20 12.3333H12C11.4614 12.3333 10.92 12.6 10.5254 13.116C10.1155 13.6765 9.93436 14.3721 10.0187 15.0613L10.876 22.6013C10.9427 23.1951 10.9543 23.7889 10.9107 24.3827C10.8976 24.5591 10.815 24.7232 10.681 24.8387C10.5469 24.9542 10.3725 25.0118 10.196 24.9987C10.0196 24.9856 9.85555 24.9029 9.74003 24.7689C9.62451 24.6349 9.56696 24.4605 9.58004 24.284C9.61922 23.774 9.6094 23.2614 9.55071 22.7533L8.69337 15.212C8.56918 14.1802 8.84602 13.1402 9.46671 12.3067ZM3.33337 23.6667C3.33337 23.1362 3.54409 22.6275 3.91916 22.2525C4.29423 21.8774 4.80294 21.6667 5.33337 21.6667H6.66671C6.84352 21.6667 7.01309 21.7369 7.13811 21.8619C7.26314 21.987 7.33337 22.1565 7.33337 22.3333C7.33337 22.5101 7.26314 22.6797 7.13811 22.8047C7.01309 22.9298 6.84352 23 6.66671 23H5.33337C5.15656 23 4.98699 23.0702 4.86197 23.1953C4.73695 23.3203 4.66671 23.4899 4.66671 23.6667V26.3333C4.66671 26.8638 4.87742 27.3725 5.25249 27.7475C5.62757 28.1226 6.13627 28.3333 6.66671 28.3333V27.6667C6.66671 27.1362 6.87742 26.6275 7.25249 26.2525C7.62757 25.8774 8.13627 25.6667 8.66671 25.6667H23.3334C23.8638 25.6667 24.3725 25.8774 24.7476 26.2525C25.1227 26.6275 25.3334 27.1362 25.3334 27.6667V28.3333C25.8638 28.3333 26.3725 28.1226 26.7476 27.7475C27.1227 27.3725 27.3334 26.8638 27.3334 26.3333V23.6667C27.3334 23.4899 27.2631 23.3203 27.1381 23.1953C27.0131 23.0702 26.8435 23 26.6667 23H25.3334C25.1566 23 24.987 22.9298 24.862 22.8047C24.7369 22.6797 24.6667 22.5101 24.6667 22.3333C24.6667 22.1565 24.7369 21.987 24.862 21.8619C24.987 21.7369 25.1566 21.6667 25.3334 21.6667H26.6667C27.1971 21.6667 27.7058 21.8774 28.0809 22.2525C28.456 22.6275 28.6667 23.1362 28.6667 23.6667V26.3333C28.6667 27.2174 28.3155 28.0652 27.6904 28.6904C27.0653 29.3155 26.2174 29.6667 25.3334 29.6667V30.3333C25.3334 30.8638 25.1227 31.3725 24.7476 31.7475C24.3725 32.1226 23.8638 32.3333 23.3334 32.3333H8.66671C8.13627 32.3333 7.62757 32.1226 7.25249 31.7475C6.87742 31.3725 6.66671 30.8638 6.66671 30.3333V29.6667C5.78265 29.6667 4.93481 29.3155 4.30968 28.6904C3.68456 28.0652 3.33337 27.2174 3.33337 26.3333V23.6667ZM8.00004 30.3333C8.00004 30.5101 8.07028 30.6797 8.1953 30.8047C8.32033 30.9298 8.4899 31 8.66671 31H23.3334C23.5102 31 23.6798 30.9298 23.8048 30.8047C23.9298 30.6797 24 30.5101 24 30.3333V27.6667C24 27.4899 23.9298 27.3203 23.8048 27.1953C23.6798 27.0702 23.5102 27 23.3334 27H8.66671C8.4899 27 8.32033 27.0702 8.1953 27.1953C8.07028 27.3203 8.00004 27.4899 8.00004 27.6667V30.3333ZM16 32.3333C15.8232 32.3333 15.6537 32.4036 15.5286 32.5286C15.4036 32.6536 15.3334 32.8232 15.3334 33V36.3333C15.3334 36.5101 15.4036 36.6797 15.5286 36.8047C15.6537 36.9298 15.8232 37 16 37C16.1769 37 16.3464 36.9298 16.4714 36.8047C16.5965 36.6797 16.6667 36.5101 16.6667 36.3333V33C16.6667 32.8232 16.5965 32.6536 16.4714 32.5286C16.3464 32.4036 16.1769 32.3333 16 32.3333ZM10.6667 38.3333C10.6667 38.1565 10.7369 37.987 10.862 37.8619C10.987 37.7369 11.1566 37.6667 11.3334 37.6667H20.6667C20.8435 37.6667 21.0131 37.7369 21.1381 37.8619C21.2631 37.987 21.3334 38.1565 21.3334 38.3333C21.3334 38.5101 21.2631 38.6797 21.1381 38.8047C21.0131 38.9298 20.8435 39 20.6667 39H11.3334C11.1566 39 10.987 38.9298 10.862 38.8047C10.7369 38.6797 10.6667 38.5101 10.6667 38.3333Z"/>
</mask>
<path d="M9.46671 12.3067C10.0854 11.4947 11.004 11 12 11H20C20.996 11 21.9147 11.4947 22.5334 12.3067C23.1507 13.1173 23.424 14.1733 23.3067 15.2107L22.4494 22.7533C22.3907 23.26 22.3814 23.7747 22.42 24.284C22.4331 24.4605 22.3756 24.6349 22.2601 24.7689C22.1445 24.9029 21.9805 24.9856 21.804 24.9987C21.6276 25.0118 21.4532 24.9542 21.3191 24.8387C21.1851 24.7232 21.1025 24.5591 21.0894 24.3827C21.0442 23.7896 21.0558 23.1935 21.124 22.6027L21.9814 15.0613C22.0657 14.3721 21.8846 13.6765 21.4747 13.116C21.08 12.6 20.5374 12.3333 20 12.3333H12C11.4614 12.3333 10.92 12.6 10.5254 13.116C10.1155 13.6765 9.93436 14.3721 10.0187 15.0613L10.876 22.6013C10.9427 23.1951 10.9543 23.7889 10.9107 24.3827C10.8976 24.5591 10.815 24.7232 10.681 24.8387C10.5469 24.9542 10.3725 25.0118 10.196 24.9987C10.0196 24.9856 9.85555 24.9029 9.74003 24.7689C9.62451 24.6349 9.56696 24.4605 9.58004 24.284C9.61922 23.774 9.6094 23.2614 9.55071 22.7533L8.69337 15.212C8.56918 14.1802 8.84602 13.1402 9.46671 12.3067ZM3.33337 23.6667C3.33337 23.1362 3.54409 22.6275 3.91916 22.2525C4.29423 21.8774 4.80294 21.6667 5.33337 21.6667H6.66671C6.84352 21.6667 7.01309 21.7369 7.13811 21.8619C7.26314 21.987 7.33337 22.1565 7.33337 22.3333C7.33337 22.5101 7.26314 22.6797 7.13811 22.8047C7.01309 22.9298 6.84352 23 6.66671 23H5.33337C5.15656 23 4.98699 23.0702 4.86197 23.1953C4.73695 23.3203 4.66671 23.4899 4.66671 23.6667V26.3333C4.66671 26.8638 4.87742 27.3725 5.25249 27.7475C5.62757 28.1226 6.13627 28.3333 6.66671 28.3333V27.6667C6.66671 27.1362 6.87742 26.6275 7.25249 26.2525C7.62757 25.8774 8.13627 25.6667 8.66671 25.6667H23.3334C23.8638 25.6667 24.3725 25.8774 24.7476 26.2525C25.1227 26.6275 25.3334 27.1362 25.3334 27.6667V28.3333C25.8638 28.3333 26.3725 28.1226 26.7476 27.7475C27.1227 27.3725 27.3334 26.8638 27.3334 26.3333V23.6667C27.3334 23.4899 27.2631 23.3203 27.1381 23.1953C27.0131 23.0702 26.8435 23 26.6667 23H25.3334C25.1566 23 24.987 22.9298 24.862 22.8047C24.7369 22.6797 24.6667 22.5101 24.6667 22.3333C24.6667 22.1565 24.7369 21.987 24.862 21.8619C24.987 21.7369 25.1566 21.6667 25.3334 21.6667H26.6667C27.1971 21.6667 27.7058 21.8774 28.0809 22.2525C28.456 22.6275 28.6667 23.1362 28.6667 23.6667V26.3333C28.6667 27.2174 28.3155 28.0652 27.6904 28.6904C27.0653 29.3155 26.2174 29.6667 25.3334 29.6667V30.3333C25.3334 30.8638 25.1227 31.3725 24.7476 31.7475C24.3725 32.1226 23.8638 32.3333 23.3334 32.3333H8.66671C8.13627 32.3333 7.62757 32.1226 7.25249 31.7475C6.87742 31.3725 6.66671 30.8638 6.66671 30.3333V29.6667C5.78265 29.6667 4.93481 29.3155 4.30968 28.6904C3.68456 28.0652 3.33337 27.2174 3.33337 26.3333V23.6667ZM8.00004 30.3333C8.00004 30.5101 8.07028 30.6797 8.1953 30.8047C8.32033 30.9298 8.4899 31 8.66671 31H23.3334C23.5102 31 23.6798 30.9298 23.8048 30.8047C23.9298 30.6797 24 30.5101 24 30.3333V27.6667C24 27.4899 23.9298 27.3203 23.8048 27.1953C23.6798 27.0702 23.5102 27 23.3334 27H8.66671C8.4899 27 8.32033 27.0702 8.1953 27.1953C8.07028 27.3203 8.00004 27.4899 8.00004 27.6667V30.3333ZM16 32.3333C15.8232 32.3333 15.6537 32.4036 15.5286 32.5286C15.4036 32.6536 15.3334 32.8232 15.3334 33V36.3333C15.3334 36.5101 15.4036 36.6797 15.5286 36.8047C15.6537 36.9298 15.8232 37 16 37C16.1769 37 16.3464 36.9298 16.4714 36.8047C16.5965 36.6797 16.6667 36.5101 16.6667 36.3333V33C16.6667 32.8232 16.5965 32.6536 16.4714 32.5286C16.3464 32.4036 16.1769 32.3333 16 32.3333ZM10.6667 38.3333C10.6667 38.1565 10.7369 37.987 10.862 37.8619C10.987 37.7369 11.1566 37.6667 11.3334 37.6667H20.6667C20.8435 37.6667 21.0131 37.7369 21.1381 37.8619C21.2631 37.987 21.3334 38.1565 21.3334 38.3333C21.3334 38.5101 21.2631 38.6797 21.1381 38.8047C21.0131 38.9298 20.8435 39 20.6667 39H11.3334C11.1566 39 10.987 38.9298 10.862 38.8047C10.7369 38.6797 10.6667 38.5101 10.6667 38.3333Z" stroke="#252536" stroke-width="2" mask="url(#path-1-inside-1_1_2648)"/>
</svg>