<svg width="24" height="24" viewBox="0 0 24 24" fill="none" xmlns="http://www.w3.org/2000/svg">
<path fill-rule="evenodd" clip-rule="evenodd" d="M16.1 15.359L16.556 14.906C17.186 14.28 18.167 14.151 18.973 14.589L20.883 15.628C22.11 16.295 22.381 17.93 21.422 18.883L20.002 20.295C19.64 20.655 19.192 20.917 18.676 20.965C17.484 21.076 15.031 21.016 12.137 19.322L16.1 15.359ZM10.19 9.48298L10.477 9.19698C11.184 8.49498 11.251 7.36698 10.634 6.54298L9.374 4.85998C8.61 3.83998 7.135 3.70498 6.26 4.57498L4.69 6.13498C4.257 6.56698 3.967 7.12498 4.002 7.74498C4.067 8.88498 4.455 10.965 6.151 13.521L10.19 9.48298Z" fill="#252536"/>
<path d="M12.063 13.4969C9.117 10.5679 10.183 9.48893 10.19 9.48193L6.151 13.5219C6.818 14.5259 7.686 15.6029 8.815 16.7259C9.955 17.8599 11.075 18.7009 12.137 19.3219L16.1 15.3599C16.1 15.3599 15.018 16.4359 12.063 13.4979" fill="#616175"/>
</svg>