<svg width="45" height="45" viewBox="0 0 45 45" fill="none" xmlns="http://www.w3.org/2000/svg">
<path d="M43.5009 6.4149C43.4824 6.23946 43.4059 6.06899 43.2716 5.93443L39.0796 1.73414C38.9234 1.57756 38.7184 1.49927 38.5134 1.49927C38.3084 1.49927 38.1034 1.57756 37.9472 1.73414C36.7751 2.90851 34.8597 2.90851 33.6876 1.73414C33.3751 1.42098 32.8677 1.42098 32.5552 1.73414C31.4182 2.8734 29.5723 2.87343 28.4353 1.73415C28.1227 1.42099 27.6153 1.42098 27.3028 1.73415C26.1658 2.87344 24.3156 2.87765 23.1786 1.73836C22.8661 1.4252 22.3587 1.4252 22.0461 1.73837C20.8741 2.91273 18.9585 2.91272 17.7865 1.73836C17.4739 1.4252 16.9665 1.4252 16.654 1.73836C15.4881 2.90656 13.5954 2.90657 12.4295 1.73837C12.1169 1.4252 11.6095 1.4252 11.297 1.73837C10.1504 2.88726 8.28883 2.88731 7.14223 1.73839C6.82969 1.42522 6.32229 1.42521 6.00974 1.73838L1.81774 5.93866C1.50608 6.25095 1.50607 6.75661 1.81773 7.0689C2.94337 8.19681 2.94335 10.0231 1.81769 11.151L1.73529 11.2336C1.42362 11.5459 1.42362 12.0515 1.73529 12.3638C2.90381 13.5347 2.90381 15.4305 1.73529 16.6013C1.42362 16.9136 1.42362 17.4193 1.73529 17.7316C2.87972 18.8783 2.87912 20.7356 1.7347 21.8823C1.42302 22.1946 1.42302 22.7002 1.7347 23.0125C2.90348 24.1836 2.90205 26.0978 1.73327 27.2689C1.57743 27.425 1.49951 27.6295 1.49951 27.834C1.49951 28.0385 1.57743 28.243 1.73327 28.3991C2.87173 29.5398 2.87376 31.3889 1.73529 32.5297C1.42362 32.8419 1.42362 33.3476 1.73529 33.6599L1.8177 33.7425C2.9739 34.901 2.97391 36.7768 1.81774 37.9353C1.50607 38.2476 1.50608 38.7532 1.81775 39.0655L6.00974 43.2658C6.32229 43.579 6.82969 43.579 7.14223 43.2658C8.28402 42.1217 10.1565 42.1029 11.2983 43.2469C11.6108 43.5601 12.1182 43.5601 12.4308 43.2469C13.5911 42.0843 15.4937 42.1032 16.6541 43.2658C16.9666 43.579 17.474 43.579 17.7865 43.2658C18.9573 42.0928 20.8767 42.0739 22.0474 43.2469C22.36 43.5601 22.8674 43.5601 23.1799 43.2469C24.3114 42.1132 26.1671 42.1321 27.2986 43.2658C27.6111 43.579 28.1185 43.579 28.4311 43.2658L28.4528 43.244C29.585 42.1096 31.423 42.1096 32.5551 43.244C32.8677 43.5572 33.3751 43.5572 33.6876 43.244C34.856 42.0733 36.7528 42.0733 37.9212 43.244L37.9429 43.2658C38.2554 43.579 38.7628 43.579 39.0754 43.2658L43.2673 39.0655C43.585 38.7473 43.5644 38.2329 43.2674 37.9353C42.0986 36.7642 42.1006 34.8319 43.2694 33.6608C43.5731 33.3565 43.5749 32.8366 43.2694 32.5305C42.1309 31.3898 42.1289 29.5407 43.2674 28.4C43.5645 28.1023 43.5851 27.588 43.2674 27.2697C42.0986 26.0986 42.1 24.1845 43.2688 23.0134C43.5747 22.7069 43.573 22.188 43.2688 21.8832C42.1244 20.7365 42.1272 18.8769 43.2716 17.7302C43.5737 17.4276 43.5759 16.9048 43.2716 16.6C42.1031 15.4291 42.1031 13.5333 43.2716 12.3625C43.5759 12.0576 43.5737 11.5349 43.2716 11.2322C42.1224 10.0807 42.1224 8.21617 43.2716 7.06467C43.4059 6.9301 43.4824 6.75963 43.5009 6.5842" stroke="#DA0916" stroke-linecap="round" stroke-linejoin="round"/>
<path d="M12.4985 15L10 17.5" stroke="#DA0916" stroke-miterlimit="10" stroke-linecap="round"/>
<path d="M12.4985 12.5L10 10" stroke="#DA0916" stroke-miterlimit="10" stroke-linecap="round"/>
<path d="M14.9976 15L17.4961 17.5" stroke="#DA0916" stroke-miterlimit="10" stroke-linecap="round"/>
<path d="M14.9976 12.5L17.4961 10" stroke="#DA0916" stroke-miterlimit="10" stroke-linecap="round"/>
<path d="M12.4985 32.5L10 35" stroke="#DA0916" stroke-miterlimit="10" stroke-linecap="round"/>
<path d="M12.4985 30L10 27.5" stroke="#DA0916" stroke-miterlimit="10" stroke-linecap="round"/>
<path d="M14.9976 32.5L17.4961 35" stroke="#DA0916" stroke-miterlimit="10" stroke-linecap="round"/>
<path d="M14.9976 30L17.4961 27.5" stroke="#DA0916" stroke-miterlimit="10" stroke-linecap="round"/>
<path d="M30.0004 15L27.502 17.5" stroke="#DA0916" stroke-miterlimit="10" stroke-linecap="round"/>
<path d="M30.0004 12.5L27.502 10" stroke="#DA0916" stroke-miterlimit="10" stroke-linecap="round"/>
<path d="M32.4996 15L34.998 17.5" stroke="#DA0916" stroke-miterlimit="10" stroke-linecap="round"/>
<path d="M32.4996 12.5L34.998 10" stroke="#DA0916" stroke-miterlimit="10" stroke-linecap="round"/>
<path d="M30.0004 32.5L27.502 35" stroke="#DA0916" stroke-miterlimit="10" stroke-linecap="round"/>
<path d="M30.0004 30L27.502 27.5" stroke="#DA0916" stroke-miterlimit="10" stroke-linecap="round"/>
<path d="M32.4996 32.5L34.998 35" stroke="#DA0916" stroke-miterlimit="10" stroke-linecap="round"/>
<path d="M32.4996 30L34.998 27.5" stroke="#DA0916" stroke-miterlimit="10" stroke-linecap="round"/>
</svg>