<svg width="32" height="50" viewBox="0 0 32 50" fill="none" xmlns="http://www.w3.org/2000/svg">
<path fill-rule="evenodd" clip-rule="evenodd" d="M5.91068 14.4947C5.91068 13.308 6.86402 12.3334 8.05468 12.3334C9.24535 12.3334 10.1987 13.308 10.1987 14.4947V22.344C10.1987 23.1547 9.75335 23.8667 9.09202 24.2374V25.4267C11.516 25.6267 13.0787 28.18 12.124 30.4827L9.25335 37.4054C9.14022 37.6794 8.94831 37.9136 8.70193 38.0784C8.45554 38.2433 8.16578 38.3313 7.86935 38.3313C7.57292 38.3313 7.28316 38.2433 7.03678 38.0784C6.79039 37.9136 6.59848 37.6794 6.48535 37.4054L3.61602 30.4827C2.62135 28.084 4.35868 25.4147 6.95602 25.4147H7.75602V24.484C7.24244 24.4087 6.77315 24.151 6.43404 23.758C6.09492 23.3651 5.90867 22.8631 5.90935 22.344V14.4934L5.91068 14.4947ZM8.05468 13.6667C7.83744 13.6692 7.63004 13.7577 7.47805 13.913C7.32606 14.0682 7.24188 14.2775 7.24402 14.4947V22.344C7.24402 22.808 7.61468 23.1707 8.05468 23.1707C8.49468 23.1707 8.86535 22.808 8.86535 22.344V14.4934C8.86748 14.2761 8.78331 14.0669 8.63132 13.9117C8.47932 13.7564 8.27193 13.6692 8.05468 13.6667ZM18.796 16.4467C19.4591 15.7412 20.2847 15.2087 21.2009 14.8957C22.117 14.5826 23.0959 14.4985 24.052 14.6507L24.7747 14.768L24.592 15.476C24.5227 15.7387 24.5334 16.0894 24.6054 16.5707C24.6409 16.8 24.6845 17.0445 24.736 17.304L24.7387 17.3174C24.788 17.5787 24.84 17.86 24.8827 18.144C25.0507 19.264 25.0934 20.6467 24.0093 21.7667C23.6204 22.1741 23.1412 22.4845 22.6105 22.673C22.0797 22.8615 21.5121 22.9228 20.9534 22.852C20.972 23.1338 21.012 23.4152 21.0734 23.696L19.7707 23.98C19.6578 23.4606 19.6028 22.9303 19.6067 22.3987C19.3096 22.2262 19.0377 22.0135 18.7987 21.7667C18.1132 21.0509 17.7304 20.0983 17.7299 19.1072C17.7294 18.1162 18.1113 17.1632 18.796 16.4467ZM21.0147 21.5134C21.1499 20.6698 21.472 19.8671 21.9574 19.164L20.86 18.4067C20.347 19.1503 19.9812 19.9854 19.7827 20.8667L19.756 20.84C19.3109 20.3725 19.0626 19.7516 19.0626 19.106C19.0626 18.4605 19.3109 17.8396 19.756 17.372L19.7614 17.3667C20.2033 16.8969 20.7385 16.5247 21.3328 16.2739C21.927 16.0232 22.5671 15.8995 23.212 15.9107C23.212 16.204 23.2467 16.4947 23.2867 16.7694C23.3267 17.0254 23.376 17.288 23.4227 17.54L23.428 17.5654C23.4774 17.8294 23.5267 18.0854 23.564 18.3414C23.72 19.376 23.676 20.1934 23.0507 20.8387C22.4947 21.4134 21.732 21.6387 21.0147 21.5134ZM14.7014 26L15.4613 28.7774H26.504L27.264 26H14.7014ZM13.676 24.9867C13.9187 24.7747 14.2387 24.6667 14.564 24.6667H27.4C27.7254 24.6667 28.0454 24.7747 28.288 24.9867C28.5347 25.2 28.7214 25.5494 28.652 25.96L28.6467 25.9934L27.7734 29.1934C27.6427 29.8334 27.0107 30.1107 26.528 30.1107H15.436C14.9547 30.1107 14.3227 29.8334 14.192 29.1947L13.3174 25.9947L13.312 25.96C13.2834 25.7802 13.3018 25.596 13.3656 25.4254C13.4294 25.2548 13.5364 25.1036 13.676 24.9867ZM6.95735 26.7467C5.33335 26.7467 4.21068 28.4294 4.84935 29.972L7.71735 36.8947C7.74535 36.9614 7.80802 37 7.87068 37C7.90353 36.9985 7.93526 36.9877 7.96217 36.9688C7.98909 36.9499 8.01007 36.9237 8.02268 36.8934L10.8934 29.9734C11.5334 28.4307 10.408 26.7494 8.78402 26.7494H6.95735V26.7467ZM15.7134 30.28C15.888 30.2541 16.0659 30.2984 16.2078 30.4034C16.3498 30.5084 16.4444 30.6654 16.4707 30.84L17.392 37H24.572L25.4947 30.84C25.5077 30.7535 25.5377 30.6703 25.5829 30.5953C25.6281 30.5203 25.6876 30.4549 25.758 30.4029C25.8285 30.3509 25.9085 30.3133 25.9935 30.2922C26.0785 30.2711 26.1668 30.267 26.2534 30.28C26.3399 30.2931 26.4231 30.3231 26.4981 30.3682C26.5731 30.4134 26.6385 30.4729 26.6905 30.5434C26.7425 30.6138 26.7801 30.6938 26.8012 30.7788C26.8223 30.8638 26.8264 30.9521 26.8134 31.0387L25.8934 37.1774C25.8174 37.7894 25.32 38.3334 24.636 38.3334H17.3293C16.644 38.3334 16.148 37.7894 16.0707 37.1774L15.152 31.0387C15.139 30.9521 15.1431 30.8638 15.1642 30.7788C15.1852 30.6938 15.2229 30.6138 15.2749 30.5434C15.3269 30.4729 15.3922 30.4134 15.4672 30.3682C15.5422 30.323 15.6268 30.2931 15.7134 30.28Z" fill="#252536"/>
</svg>