<svg width="24" height="24" viewBox="0 0 24 24" fill="none" xmlns="http://www.w3.org/2000/svg">
<path d="M2.00006 11.5232C2 11.6794 2 11.8384 2 12.0001C2 12.5377 2 13.0447 2.00217 13.5232H10.3334C10.8856 13.5232 11.3334 13.0755 11.3334 12.5232C11.3334 11.9709 10.8856 11.5232 10.3334 11.5232H2.00006Z" fill="#616175"/>
<path d="M11.7795 22.0001C11.8524 22.0001 11.9259 22.0001 12 22.0001C12.0744 22.0001 12.1483 22.0001 12.2215 22.0001H11.7795Z" fill="#616175"/>
<path d="M21.8486 17.2309H13.6667C13.1144 17.2309 12.6667 16.7832 12.6667 16.2309C12.6667 15.6786 13.1144 15.2309 13.6667 15.2309H21.9741C21.9533 15.9792 21.9159 16.6414 21.8486 17.2309Z" fill="#616175"/>
<path d="M10.0001 2.00513C6.58693 2.03405 4.70528 2.22348 3.464 3.46391C2 4.92991 2 7.28591 2 11.9999C2 16.7139 2 19.0719 3.464 20.5359C4.93 21.9999 7.286 21.9999 12 21.9999C16.714 21.9999 19.071 21.9999 20.535 20.5349C22 19.0719 22 16.7139 22 11.9999C22 7.28591 22 4.92891 20.535 3.46391C19.4222 2.35032 17.7915 2.08378 15 2.01999V2.01999C14.7251 2.0137 14.5 2.23585 14.5 2.51086V9.49991" stroke="#252536" stroke-width="2" stroke-linecap="round"/>
</svg>