<svg width="32" height="50" viewBox="0 0 32 50" fill="none" xmlns="http://www.w3.org/2000/svg">
<path d="M27.6075 23.5161H4.39218C4.28124 23.5161 4.17484 23.472 4.09639 23.3936C4.01795 23.3151 3.97388 23.2088 3.97388 23.0978V21.8072C3.97388 21.6963 4.01795 21.5899 4.09639 21.5114C4.17484 21.433 4.28124 21.3889 4.39218 21.3889H27.6075C27.6624 21.3889 27.7168 21.3997 27.7676 21.4208C27.8183 21.4418 27.8644 21.4726 27.9033 21.5114C27.9421 21.5503 27.9729 21.5964 27.9939 21.6472C28.015 21.6979 28.0258 21.7523 28.0258 21.8072V23.0978C28.0258 23.2088 27.9817 23.3151 27.9033 23.3936C27.8248 23.472 27.7184 23.5161 27.6075 23.5161Z" stroke="#252536" stroke-width="1.2" stroke-miterlimit="10" stroke-linecap="round" stroke-linejoin="round"/>
<path d="M21.2208 17.9922H10.779C10.4158 17.9922 10.1213 17.6977 10.1213 17.3345V12.6578C10.1213 12.2946 10.4158 12.0001 10.779 12.0001H21.2208C21.584 12.0001 21.8784 12.2946 21.8784 12.6578V17.3345C21.8784 17.6977 21.584 17.9922 21.2208 17.9922Z" stroke="#252536" stroke-width="1.2" stroke-miterlimit="10" stroke-linecap="round" stroke-linejoin="round"/>
<path d="M4.80493 23.5161V27.6292C4.80493 27.7263 4.84351 27.8194 4.91219 27.8881C4.98086 27.9568 5.07401 27.9954 5.17113 27.9954H26.8285C26.9256 27.9954 27.0188 27.9568 27.0875 27.8881C27.1561 27.8194 27.1947 27.7263 27.1947 27.6292V23.5161H4.80493Z" stroke="#252536" stroke-width="1.2" stroke-miterlimit="10" stroke-linecap="round" stroke-linejoin="round"/>
<path d="M5.47034 37.2935V27.9953H7.88208V37.2935C7.88208 37.6833 7.222 38 6.67621 38C6.13042 38 5.47034 37.6832 5.47034 37.2935Z" stroke="#252536" stroke-width="1.2" stroke-miterlimit="10" stroke-linecap="round" stroke-linejoin="round"/>
<path d="M9.56641 27.9952V28.9343C9.56641 29.0682 9.61957 29.1965 9.71421 29.2912C9.80884 29.3858 9.93719 29.439 10.071 29.439H21.929C21.9953 29.439 22.0609 29.4259 22.1221 29.4006C22.1833 29.3752 22.239 29.338 22.2858 29.2912C22.3327 29.2443 22.3698 29.1887 22.3952 29.1275C22.4206 29.0662 22.4336 29.0006 22.4336 28.9343V27.9952H9.56641Z" stroke="#252536" stroke-width="1.2" stroke-miterlimit="10" stroke-linecap="round" stroke-linejoin="round"/>
<path d="M26.5294 27.9953V37.2935C26.5294 37.6833 25.8693 38 25.3235 38C24.7778 38 24.1177 37.6833 24.1177 37.2935V27.9953H26.5294Z" stroke="#252536" stroke-width="1.2" stroke-miterlimit="10" stroke-linecap="round" stroke-linejoin="round"/>
<path d="M11.3324 29.4391V37.293C11.3324 37.6831 11.7761 38 12.1663 38C12.5564 38 13.0001 37.6831 13.0001 37.293V29.4391H11.3324Z" stroke="#252536" stroke-width="1.2" stroke-miterlimit="10" stroke-linecap="round" stroke-linejoin="round"/>
<path d="M19.25 29.4391V37.293C19.25 37.6831 19.6937 38 20.0839 38C20.474 38 20.9177 37.6831 20.9177 37.293V29.4391H19.25Z" stroke="#252536" stroke-width="1.2" stroke-miterlimit="10" stroke-linecap="round" stroke-linejoin="round"/>
<path d="M11.3324 21.3889H12.7453V17.9921H11.3324V21.3889ZM19.2546 21.3889H20.6675V17.9921H19.2546V21.3889Z" stroke="#252536" stroke-width="1.2" stroke-miterlimit="10" stroke-linecap="round" stroke-linejoin="round"/>
</svg>