<svg width="24" height="24" viewBox="0 0 24 24" fill="none" xmlns="http://www.w3.org/2000/svg">
<path opacity="0.6" d="M20.313 11.157C20.3257 12.3675 20.0982 13.5685 19.6437 14.6905C19.1892 15.8125 18.5167 16.8333 17.6652 17.6938C16.8137 18.5542 15.8 19.2373 14.6828 19.7035C13.5656 20.1697 12.3671 20.4097 11.1565 20.4097C9.94594 20.4097 8.74739 20.1697 7.63019 19.7035C6.51299 19.2373 5.49931 18.5542 4.64779 17.6938C3.79628 16.8333 3.12383 15.8125 2.66934 14.6905C2.21486 13.5685 1.98736 12.3675 2.00001 11.157C2.02522 8.74513 3.00102 6.4406 4.71546 4.74398C6.42989 3.04737 8.7445 2.0957 11.1565 2.0957C13.5685 2.0957 15.8831 3.04737 17.5976 4.74398C19.312 6.4406 20.2878 8.74513 20.313 11.157Z" fill="#616175"/>
<path d="M17.1 18.1221L20.766 21.7881C20.9015 21.9238 21.0854 22 21.2771 22.0001C21.4689 22.0002 21.6528 21.9241 21.7885 21.7886C21.9241 21.6531 22.0004 21.4692 22.0005 21.2775C22.0006 21.0857 21.9245 20.9018 21.789 20.7661L18.122 17.1001C17.8093 17.4676 17.4675 17.8094 17.1 18.1221Z" fill="#616175"/>
</svg>