<svg width="474" height="117" viewBox="0 0 474 117" fill="none" xmlns="http://www.w3.org/2000/svg">
<path d="M2.64062 9.01562H15.1875V13.2969H6.98438V17.4531H15.1875V21.6562H6.98438V27.7031H15.1875V32H2.64062V9.01562ZM19.5781 9.01562H24.2188C26.7604 9.01562 28.5677 9.24479 29.6406 9.70312C30.724 10.151 31.5938 10.901 32.25 11.9531C32.9062 13.0052 33.2344 14.25 33.2344 15.6875C33.2344 17.1979 32.8698 18.4635 32.1406 19.4844C31.4219 20.4948 30.3333 21.2604 28.875 21.7812L34.3125 32H29.5312L24.3594 22.2656H23.9531V32H19.5781V9.01562ZM23.9531 18H25.3281C26.724 18 27.6823 17.8177 28.2031 17.4531C28.7344 17.0885 29 16.4844 29 15.6406C29 15.1406 28.8698 14.7083 28.6094 14.3438C28.349 13.9688 28 13.7031 27.5625 13.5469C27.125 13.3802 26.3229 13.2969 25.1562 13.2969H23.9531V18ZM103.641 12.1406L100.406 15C99.2708 13.4167 98.1146 12.625 96.9375 12.625C96.3646 12.625 95.8958 12.7812 95.5312 13.0938C95.1667 13.3958 94.9844 13.7396 94.9844 14.125C94.9844 14.5104 95.1146 14.875 95.375 15.2188C95.7292 15.6771 96.7969 16.6615 98.5781 18.1719C100.245 19.5677 101.255 20.4479 101.609 20.8125C102.495 21.7083 103.12 22.5677 103.484 23.3906C103.859 24.2031 104.047 25.0938 104.047 26.0625C104.047 27.9479 103.396 29.5052 102.094 30.7344C100.792 31.9635 99.0938 32.5781 97 32.5781C95.3646 32.5781 93.9375 32.1771 92.7188 31.375C91.5104 30.5729 90.474 29.3125 89.6094 27.5938L93.2812 25.375C94.3854 27.4062 95.6562 28.4219 97.0938 28.4219C97.8438 28.4219 98.474 28.2031 98.9844 27.7656C99.4948 27.3281 99.75 26.8229 99.75 26.25C99.75 25.7292 99.5573 25.2083 99.1719 24.6875C98.7865 24.1667 97.9375 23.3698 96.625 22.2969C94.125 20.2552 92.5104 18.6823 91.7812 17.5781C91.0521 16.4635 90.6875 15.3542 90.6875 14.25C90.6875 12.6562 91.2917 11.2917 92.5 10.1562C93.7188 9.01042 95.2188 8.4375 97 8.4375C98.1458 8.4375 99.2344 8.70312 100.266 9.23438C101.307 9.76562 102.432 10.7344 103.641 12.1406ZM105.984 9.01562H118.688V13.3281H114.5V32H110.062V13.3281H105.984V9.01562ZM120.047 9.01562H124.75L129.031 17.2656L133.281 9.01562H137.922L131.203 22.0469V32H126.797V22.0469L120.047 9.01562ZM141.531 9.01562H145.906V27.8281H152.281V32H141.531V9.01562ZM155.641 9.01562H168.188V13.2969H159.984V17.4531H168.188V21.6562H159.984V27.7031H168.188V32H155.641V9.01562Z" fill="#DA0916"/>
<path d="M59.0625 12.7656L55.9844 15.8125C54.0365 13.75 51.7656 12.7188 49.1719 12.7188C46.9115 12.7188 45.0156 13.4688 43.4844 14.9688C41.9635 16.4688 41.2031 18.2917 41.2031 20.4375C41.2031 22.6562 41.9948 24.5365 43.5781 26.0781C45.1615 27.6198 47.1146 28.3906 49.4375 28.3906C50.9479 28.3906 52.2188 28.0729 53.25 27.4375C54.2917 26.8021 55.1302 25.8073 55.7656 24.4531H49.1094V20.3438H60.6719L60.7031 21.3125C60.7031 23.3229 60.1823 25.2292 59.1406 27.0312C58.099 28.8333 56.75 30.2083 55.0938 31.1562C53.4375 32.1042 51.4948 32.5781 49.2656 32.5781C46.8802 32.5781 44.75 32.0625 42.875 31.0312C41.0104 29.9896 39.5312 28.5104 38.4375 26.5938C37.3542 24.6771 36.8125 22.6094 36.8125 20.3906C36.8125 17.349 37.8177 14.7031 39.8281 12.4531C42.2135 9.77604 45.3177 8.4375 49.1406 8.4375C51.1406 8.4375 53.0104 8.80729 54.75 9.54688C56.2188 10.1719 57.6562 11.2448 59.0625 12.7656ZM75.5781 8.4375C78.8281 8.4375 81.6198 9.61458 83.9531 11.9688C86.2969 14.3229 87.4688 17.1927 87.4688 20.5781C87.4688 23.9323 86.3125 26.7708 84 29.0938C81.6979 31.4167 78.901 32.5781 75.6094 32.5781C72.1615 32.5781 69.2969 31.3854 67.0156 29C64.7344 26.6146 63.5938 23.7812 63.5938 20.5C63.5938 18.3021 64.125 16.2812 65.1875 14.4375C66.25 12.5938 67.7083 11.1354 69.5625 10.0625C71.4271 8.97917 73.4323 8.4375 75.5781 8.4375ZM75.5312 12.7188C73.4062 12.7188 71.6198 13.4583 70.1719 14.9375C68.724 16.4167 68 18.2969 68 20.5781C68 23.1198 68.9115 25.1302 70.7344 26.6094C72.151 27.7656 73.776 28.3438 75.6094 28.3438C77.6823 28.3438 79.4479 27.5938 80.9062 26.0938C82.3646 24.5938 83.0938 22.7448 83.0938 20.5469C83.0938 18.3594 82.3594 16.5104 80.8906 15C79.4219 13.4792 77.6354 12.7188 75.5312 12.7188Z" fill="#EF7F1A"/>
<path d="M178.344 22.0469H210.719V24.0625H178.344V22.0469ZM240.812 32H238.312L230.703 14.2344L222.953 32H220.453L230.453 9.01562H230.953L240.812 32ZM242.922 9.07812H245.516L252.469 24.6875L258.828 9.01562H261.344L252.625 29.6719C251.812 31.6094 250.37 32.5781 248.297 32.5781C247.464 32.5781 246.677 32.4062 245.938 32.0625C245.198 31.7292 244.26 30.9323 243.125 29.6719L244.797 28.2969C245.953 29.4323 246.724 30.0781 247.109 30.2344C247.495 30.3906 247.885 30.4688 248.281 30.4688C248.885 30.4688 249.406 30.3073 249.844 29.9844C250.292 29.6615 250.781 28.8542 251.312 27.5625L242.922 9.07812ZM274.75 18.9375V9.01562H277.047V32H274.75V21.1719H273.094C270.802 21.1719 269.125 21.0781 268.062 20.8906C267.01 20.7031 266.068 20.2969 265.234 19.6719C264.401 19.0365 263.828 18.2656 263.516 17.3594C263.214 16.4427 263.062 15.1823 263.062 13.5781V9.01562H265.312V13.7188C265.312 15.6458 265.698 17 266.469 17.7812C267.25 18.5521 268.547 18.9375 270.359 18.9375L271.984 18.9219L272.688 18.9375H274.75ZM284.891 29.8281H294.703V9.01562H297.016V29.8281H306.984V9.01562H309.297V32H282.578V9.01562H284.891V29.8281ZM332.922 32H330.531V14.3906L315.391 32H314.875V9.01562H317.172V26.9375L332.406 9.01562H332.922V32ZM356.609 32H354.219V14.3906L339.078 32H338.562V9.01562H340.859V26.9375L356.094 9.01562H356.609V32ZM342.047 3.51562H344.109C344.464 4.05729 344.938 4.46354 345.531 4.73438C346.125 5.00521 346.833 5.14062 347.656 5.14062C348.49 5.14062 349.161 5.02083 349.672 4.78125C350.182 4.54167 350.667 4.11979 351.125 3.51562H353.125C352.896 4.45312 352.307 5.23958 351.359 5.875C350.422 6.5 349.182 6.8125 347.641 6.8125C346.109 6.8125 344.859 6.50521 343.891 5.89062C342.922 5.26562 342.307 4.47396 342.047 3.51562ZM13.75 47.4375C17.2292 47.4375 20.1406 48.599 22.4844 50.9219C24.8281 53.2448 26 56.1042 26 59.5C26 62.8646 24.8281 65.7188 22.4844 68.0625C20.151 70.4062 17.3021 71.5781 13.9375 71.5781C10.5312 71.5781 7.65625 70.4115 5.3125 68.0781C2.96875 65.7448 1.79688 62.9219 1.79688 59.6094C1.79688 57.401 2.32812 55.3542 3.39062 53.4688C4.46354 51.5833 5.92188 50.1094 7.76562 49.0469C9.60938 47.974 11.6042 47.4375 13.75 47.4375ZM13.8594 49.6875C12.1615 49.6875 10.5521 50.1302 9.03125 51.0156C7.51042 51.901 6.32292 53.0938 5.46875 54.5938C4.61458 56.0938 4.1875 57.7656 4.1875 59.6094C4.1875 62.3385 5.13021 64.6458 7.01562 66.5312C8.91146 68.4062 11.1927 69.3438 13.8594 69.3438C15.6406 69.3438 17.2865 68.9115 18.7969 68.0469C20.3177 67.1823 21.5 66 22.3438 64.5C23.1979 63 23.625 61.3333 23.625 59.5C23.625 57.6771 23.1979 56.0312 22.3438 54.5625C21.5 53.0833 20.3073 51.901 18.7656 51.0156C17.224 50.1302 15.5885 49.6875 13.8594 49.6875ZM30.5781 48.0156H32.8906V57.6562H44.5781V48.0156H46.8906V71H44.5781V59.9062H32.8906V71H30.5781V48.0156ZM71.0938 71H68.5938L60.9844 53.2344L53.2344 71H50.7344L60.7344 48.0156H61.2344L71.0938 71ZM84.3438 48.0156L95.0625 71H92.5938L88.9844 63.4375H79.0781L75.4844 71H72.9219L83.7812 48.0156H84.3438ZM84.0625 52.8906L80.1094 61.2188H87.9688L84.0625 52.8906ZM116.703 71H114.312V53.3906L99.1719 71H98.6562V48.0156H100.953V65.9375L116.188 48.0156H116.703V71ZM102.141 42.5156H104.203C104.557 43.0573 105.031 43.4635 105.625 43.7344C106.219 44.0052 106.927 44.1406 107.75 44.1406C108.583 44.1406 109.255 44.0208 109.766 43.7812C110.276 43.5417 110.76 43.1198 111.219 42.5156H113.219C112.99 43.4531 112.401 44.2396 111.453 44.875C110.516 45.5 109.276 45.8125 107.734 45.8125C106.203 45.8125 104.953 45.5052 103.984 44.8906C103.016 44.2656 102.401 43.474 102.141 42.5156ZM122.297 48.0156H124.609V57.6562H136.297V48.0156H138.609V71H136.297V59.9062H124.609V71H122.297V48.0156ZM142.422 61.4062H151.016V63.3125H142.422V61.4062ZM153.781 71L157.047 48.0156H157.422L166.766 66.875L176.016 48.0156H176.391L179.688 71H177.422L175.172 54.5625L167.047 71H166.469L158.234 54.4375L156 71H153.781ZM193.625 48.0156L204.344 71H201.875L198.266 63.4375H188.359L184.766 71H182.203L193.062 48.0156H193.625ZM193.344 52.8906L189.391 61.2188H197.25L193.344 52.8906ZM210.172 71H207.891V48.0156H219.406V50.2812H210.172V71ZM232.094 48.0156L242.812 71H240.344L236.734 63.4375H226.828L223.234 71H220.672L231.531 48.0156H232.094ZM231.812 52.8906L227.859 61.2188H235.719L231.812 52.8906ZM246.859 50.25C248.474 48.375 250.469 47.4375 252.844 47.4375C254.729 47.4375 256.286 47.9844 257.516 49.0781C258.745 50.1615 259.359 51.5677 259.359 53.2969C259.359 55.7448 258.208 57.5 255.906 58.5625C258.938 59.5 260.453 61.5312 260.453 64.6562C260.453 66.7396 259.776 68.4167 258.422 69.6875C257.068 70.9583 255.214 71.5938 252.859 71.5938C251.214 71.5938 249.781 71.2552 248.562 70.5781C247.354 69.8906 246.214 68.6927 245.141 66.9844L246.922 65.9375C247.984 67.5 248.979 68.5052 249.906 68.9531C250.833 69.3906 251.797 69.6094 252.797 69.6094C254.255 69.6094 255.495 69.1875 256.516 68.3438C257.536 67.5 258.047 66.2604 258.047 64.625C258.047 63.7604 257.87 63.0104 257.516 62.375C257.172 61.7292 256.682 61.2083 256.047 60.8125C255.411 60.4167 254.807 60.1667 254.234 60.0625C253.661 59.9583 252.719 59.9062 251.406 59.9062H251.016V57.8906H251.781C255.188 57.8906 256.891 56.5104 256.891 53.75C256.891 52.4688 256.5 51.4531 255.719 50.7031C254.948 49.9427 253.969 49.5625 252.781 49.5625C251.24 49.5625 249.792 50.2604 248.438 51.6562L246.859 50.25ZM283.047 71H280.656V53.3906L265.516 71H265V48.0156H267.297V65.9375L282.531 48.0156H283.047V71ZM288.641 48.0156H290.953V57.6562H302.641V48.0156H304.953V71H302.641V59.9062H290.953V71H288.641V48.0156ZM1.75 110L5.01562 87.0156H5.39062L14.7344 105.875L23.9844 87.0156H24.3594L27.6562 110H25.3906L23.1406 93.5625L15.0156 110H14.4375L6.20312 93.4375L3.96875 110H1.75ZM32.2188 87.0156H45.3906V89.2812H34.5156V96.4688H45.2969V98.7188H34.5156V107.734H45.2969V110H32.2188V87.0156ZM49.3438 110V87.0156H60.8594V89.2812H51.6094V96.625H52.6875C55.5521 96.625 57.6302 96.8802 58.9219 97.3906C60.224 97.8906 61.2448 98.6875 61.9844 99.7812C62.7344 100.865 63.1094 102.073 63.1094 103.406C63.1094 105.156 62.4531 106.693 61.1406 108.016C59.8281 109.339 58 110 55.6562 110H49.3438ZM51.6094 98.9375V107.75H54.4375C56.1146 107.75 57.3438 107.589 58.125 107.266C58.9062 106.932 59.526 106.427 59.9844 105.75C60.4531 105.062 60.6875 104.297 60.6875 103.453C60.6875 102.391 60.3594 101.49 59.7031 100.75C59.0469 100.01 58.2292 99.526 57.25 99.2969C56.2708 99.0573 54.8177 98.9375 52.8906 98.9375H51.6094ZM67.7188 87.0156H80.8906V89.2812H70.0156V96.4688H80.7969V98.7188H70.0156V107.734H80.7969V110H67.7188V87.0156ZM103.469 110H100.969L93.3594 92.2344L85.6094 110H83.1094L93.1094 87.0156H93.6094L103.469 110ZM125.391 110H123V92.3906L107.859 110H107.344V87.0156H109.641V104.938L124.875 87.0156H125.391V110ZM134.047 86.4375V104.25H131.781V86.4375H134.047ZM132.938 106.562C133.469 106.562 133.922 106.75 134.297 107.125C134.672 107.5 134.859 107.958 134.859 108.5C134.859 109.031 134.672 109.49 134.297 109.875C133.922 110.25 133.469 110.438 132.938 110.438C132.406 110.438 131.953 110.25 131.578 109.875C131.203 109.49 131.016 109.031 131.016 108.5C131.016 107.958 131.203 107.5 131.578 107.125C131.953 106.75 132.406 106.562 132.938 106.562Z" fill="#252536"/>
<mask id="path-2-outside-1_1_2424" maskUnits="userSpaceOnUse" x="1.62909" y="7.39429" width="167" height="26" fill="black">
<rect fill="white" x="1.62909" y="7.39429" width="167" height="26"/>
<path d="M2.62909 8.96989H15.1213V13.2325H6.95392V17.3707H15.1213V21.5555H6.95392V27.576H15.1213V31.8542H2.62909V8.96989Z"/>
<path d="M19.4928 8.96989H24.1133C26.6439 8.96989 28.4433 9.19806 29.5115 9.6544C30.5901 10.1004 31.4561 10.8471 32.1095 11.8946C32.7629 12.9421 33.0896 14.1815 33.0896 15.6127C33.0896 17.1166 32.7266 18.3767 32.0006 19.3931C31.285 20.3991 30.2012 21.1614 28.7492 21.6799L34.163 31.8542H29.4026L24.2533 22.1622H23.8488V31.8542H19.4928V8.96989ZM23.8488 17.9151H25.2178C26.6076 17.9151 27.5617 17.7336 28.0803 17.3707C28.6092 17.0077 28.8737 16.4061 28.8737 15.566C28.8737 15.0682 28.744 14.6378 28.4848 14.2748C28.2255 13.9015 27.878 13.637 27.4424 13.4814C27.0068 13.3155 26.2083 13.2325 25.0467 13.2325H23.8488V17.9151Z"/>
<path d="M58.8053 12.7036L55.7406 15.7372C53.8011 13.6837 51.5402 12.6569 48.9577 12.6569C46.7071 12.6569 44.8196 13.4036 43.295 14.8971C41.7808 16.3906 41.0237 18.2055 41.0237 20.342C41.0237 22.5511 41.8119 24.4231 43.3883 25.9581C44.9648 27.493 46.9094 28.2605 49.2222 28.2605C50.726 28.2605 51.9913 27.9442 53.0181 27.3116C54.0552 26.6789 54.8901 25.6884 55.5228 24.3402H48.8955V20.2487H60.4076L60.4388 21.2132C60.4388 23.2149 59.9202 25.1128 58.8831 26.9071C57.8459 28.7013 56.5028 30.0703 54.8538 31.0141C53.2048 31.9579 51.2705 32.4298 49.0511 32.4298C46.676 32.4298 44.5551 31.9164 42.6883 30.8897C40.8318 29.8525 39.3591 28.3798 38.2701 26.4715C37.1915 24.5632 36.6522 22.5045 36.6522 20.2954C36.6522 17.2669 37.653 14.6326 39.6547 12.3924C42.0297 9.727 45.1203 8.39429 48.9266 8.39429C50.9179 8.39429 52.7795 8.76247 54.5116 9.49883C55.9739 10.1211 57.4051 11.1894 58.8053 12.7036Z"/>
<path d="M75.249 8.39429C78.4848 8.39429 81.2643 9.56624 83.5875 11.9102C85.9211 14.2541 87.0878 17.1114 87.0878 20.482C87.0878 23.8216 85.9366 26.6478 83.6342 28.9606C81.3421 31.2734 78.5574 32.4298 75.2801 32.4298C71.8472 32.4298 68.9951 31.2423 66.7238 28.8672C64.4525 26.4922 63.3168 23.6712 63.3168 20.4043C63.3168 18.2159 63.8457 16.2039 64.9036 14.3682C65.9615 12.5324 67.4135 11.0805 69.2596 10.0122C71.116 8.9336 73.1125 8.39429 75.249 8.39429ZM75.2023 12.6569C73.0866 12.6569 71.3079 13.3933 69.8663 14.866C68.4247 16.3387 67.7039 18.2107 67.7039 20.482C67.7039 23.0126 68.6113 25.0143 70.4263 26.487C71.8368 27.6382 73.4548 28.2139 75.2801 28.2139C77.344 28.2139 79.1019 27.4671 80.5539 25.9737C82.0059 24.4802 82.7319 22.6393 82.7319 20.4509C82.7319 18.273 82.0007 16.4321 80.5384 14.9282C79.076 13.414 77.2973 12.6569 75.2023 12.6569Z"/>
<path d="M103.189 12.0813L99.969 14.9282C98.8385 13.3518 97.6873 12.5636 96.5154 12.5636C95.9449 12.5636 95.4782 12.7191 95.1152 13.0303C94.7522 13.331 94.5707 13.6733 94.5707 14.057C94.5707 14.4408 94.7004 14.8038 94.9597 15.146C95.3123 15.6023 96.3753 16.5824 98.1488 18.0863C99.8082 19.476 100.814 20.3524 101.167 20.7154C102.048 21.6073 102.671 22.463 103.034 23.2823C103.407 24.0913 103.594 24.978 103.594 25.9425C103.594 27.8197 102.946 29.3703 101.649 30.5941C100.353 31.8179 98.6622 32.4298 96.5776 32.4298C94.9493 32.4298 93.5284 32.0305 92.315 31.2319C91.1119 30.4333 90.08 29.1784 89.2191 27.4671L92.875 25.258C93.9744 27.2804 95.2397 28.2916 96.6709 28.2916C97.4177 28.2916 98.0451 28.0738 98.5533 27.6382C99.0615 27.2027 99.3156 26.6996 99.3156 26.1292C99.3156 25.6107 99.1237 25.0921 98.74 24.5735C98.3563 24.055 97.511 23.2616 96.2042 22.1933C93.7151 20.1605 92.1075 18.5945 91.3816 17.4951C90.6556 16.3854 90.2926 15.2808 90.2926 14.1815C90.2926 12.5947 90.8941 11.236 92.0972 10.1056C93.3106 8.96471 94.8041 8.39429 96.5776 8.39429C97.7184 8.39429 98.8022 8.65876 99.829 9.18769C100.866 9.71663 101.986 10.6812 103.189 12.0813Z"/>
<path d="M105.523 8.96989H118.171V13.2636H114.001V31.8542H109.583V13.2636H105.523V8.96989Z"/>
<path d="M119.524 8.96989H124.207L128.469 17.184L132.701 8.96989H137.321L130.632 21.9444V31.8542H126.245V21.9444L119.524 8.96989Z"/>
<path d="M140.915 8.96989H145.271V27.7005H151.618V31.8542H140.915V8.96989Z"/>
<path d="M154.963 8.96989H167.455V13.2325H159.288V17.3707H167.455V21.5555H159.288V27.576H167.455V31.8542H154.963V8.96989Z"/>
</mask>
<path d="M2.62909 8.96989H15.1213V13.2325H6.95392V17.3707H15.1213V21.5555H6.95392V27.576H15.1213V31.8542H2.62909V8.96989Z" fill="#DA0916"/>
<path d="M19.4928 8.96989H24.1133C26.6439 8.96989 28.4433 9.19806 29.5115 9.6544C30.5901 10.1004 31.4561 10.8471 32.1095 11.8946C32.7629 12.9421 33.0896 14.1815 33.0896 15.6127C33.0896 17.1166 32.7266 18.3767 32.0006 19.3931C31.285 20.3991 30.2012 21.1614 28.7492 21.6799L34.163 31.8542H29.4026L24.2533 22.1622H23.8488V31.8542H19.4928V8.96989ZM23.8488 17.9151H25.2178C26.6076 17.9151 27.5617 17.7336 28.0803 17.3707C28.6092 17.0077 28.8737 16.4061 28.8737 15.566C28.8737 15.0682 28.744 14.6378 28.4848 14.2748C28.2255 13.9015 27.878 13.637 27.4424 13.4814C27.0068 13.3155 26.2083 13.2325 25.0467 13.2325H23.8488V17.9151Z" fill="#DA0916"/>
<path d="M58.8053 12.7036L55.7406 15.7372C53.8011 13.6837 51.5402 12.6569 48.9577 12.6569C46.7071 12.6569 44.8196 13.4036 43.295 14.8971C41.7808 16.3906 41.0237 18.2055 41.0237 20.342C41.0237 22.5511 41.8119 24.4231 43.3883 25.9581C44.9648 27.493 46.9094 28.2605 49.2222 28.2605C50.726 28.2605 51.9913 27.9442 53.0181 27.3116C54.0552 26.6789 54.8901 25.6884 55.5228 24.3402H48.8955V20.2487H60.4076L60.4388 21.2132C60.4388 23.2149 59.9202 25.1128 58.8831 26.9071C57.8459 28.7013 56.5028 30.0703 54.8538 31.0141C53.2048 31.9579 51.2705 32.4298 49.0511 32.4298C46.676 32.4298 44.5551 31.9164 42.6883 30.8897C40.8318 29.8525 39.3591 28.3798 38.2701 26.4715C37.1915 24.5632 36.6522 22.5045 36.6522 20.2954C36.6522 17.2669 37.653 14.6326 39.6547 12.3924C42.0297 9.727 45.1203 8.39429 48.9266 8.39429C50.9179 8.39429 52.7795 8.76247 54.5116 9.49883C55.9739 10.1211 57.4051 11.1894 58.8053 12.7036Z" fill="#EF7F1A"/>
<path d="M75.249 8.39429C78.4848 8.39429 81.2643 9.56624 83.5875 11.9102C85.9211 14.2541 87.0878 17.1114 87.0878 20.482C87.0878 23.8216 85.9366 26.6478 83.6342 28.9606C81.3421 31.2734 78.5574 32.4298 75.2801 32.4298C71.8472 32.4298 68.9951 31.2423 66.7238 28.8672C64.4525 26.4922 63.3168 23.6712 63.3168 20.4043C63.3168 18.2159 63.8457 16.2039 64.9036 14.3682C65.9615 12.5324 67.4135 11.0805 69.2596 10.0122C71.116 8.9336 73.1125 8.39429 75.249 8.39429ZM75.2023 12.6569C73.0866 12.6569 71.3079 13.3933 69.8663 14.866C68.4247 16.3387 67.7039 18.2107 67.7039 20.482C67.7039 23.0126 68.6113 25.0143 70.4263 26.487C71.8368 27.6382 73.4548 28.2139 75.2801 28.2139C77.344 28.2139 79.1019 27.4671 80.5539 25.9737C82.0059 24.4802 82.7319 22.6393 82.7319 20.4509C82.7319 18.273 82.0007 16.4321 80.5384 14.9282C79.076 13.414 77.2973 12.6569 75.2023 12.6569Z" fill="#EF7F1A"/>
<path d="M103.189 12.0813L99.969 14.9282C98.8385 13.3518 97.6873 12.5636 96.5154 12.5636C95.9449 12.5636 95.4782 12.7191 95.1152 13.0303C94.7522 13.331 94.5707 13.6733 94.5707 14.057C94.5707 14.4408 94.7004 14.8038 94.9597 15.146C95.3123 15.6023 96.3753 16.5824 98.1488 18.0863C99.8082 19.476 100.814 20.3524 101.167 20.7154C102.048 21.6073 102.671 22.463 103.034 23.2823C103.407 24.0913 103.594 24.978 103.594 25.9425C103.594 27.8197 102.946 29.3703 101.649 30.5941C100.353 31.8179 98.6622 32.4298 96.5776 32.4298C94.9493 32.4298 93.5284 32.0305 92.315 31.2319C91.1119 30.4333 90.08 29.1784 89.2191 27.4671L92.875 25.258C93.9744 27.2804 95.2397 28.2916 96.6709 28.2916C97.4177 28.2916 98.0451 28.0738 98.5533 27.6382C99.0615 27.2027 99.3156 26.6996 99.3156 26.1292C99.3156 25.6107 99.1237 25.0921 98.74 24.5735C98.3563 24.055 97.511 23.2616 96.2042 22.1933C93.7151 20.1605 92.1075 18.5945 91.3816 17.4951C90.6556 16.3854 90.2926 15.2808 90.2926 14.1815C90.2926 12.5947 90.8941 11.236 92.0972 10.1056C93.3106 8.96471 94.8041 8.39429 96.5776 8.39429C97.7184 8.39429 98.8022 8.65876 99.829 9.18769C100.866 9.71663 101.986 10.6812 103.189 12.0813Z" fill="#DA0916"/>
<path d="M105.523 8.96989H118.171V13.2636H114.001V31.8542H109.583V13.2636H105.523V8.96989Z" fill="#DA0916"/>
<path d="M119.524 8.96989H124.207L128.469 17.184L132.701 8.96989H137.321L130.632 21.9444V31.8542H126.245V21.9444L119.524 8.96989Z" fill="#DA0916"/>
<path d="M140.915 8.96989H145.271V27.7005H151.618V31.8542H140.915V8.96989Z" fill="#DA0916"/>
<path d="M154.963 8.96989H167.455V13.2325H159.288V17.3707H167.455V21.5555H159.288V27.576H167.455V31.8542H154.963V8.96989Z" fill="#DA0916"/>
<path d="M2.62909 8.96989H15.1213V13.2325H6.95392V17.3707H15.1213V21.5555H6.95392V27.576H15.1213V31.8542H2.62909V8.96989Z" stroke="#DA0916" stroke-width="1.38525" mask="url(#path-2-outside-1_1_2424)"/>
<path d="M19.4928 8.96989H24.1133C26.6439 8.96989 28.4433 9.19806 29.5115 9.6544C30.5901 10.1004 31.4561 10.8471 32.1095 11.8946C32.7629 12.9421 33.0896 14.1815 33.0896 15.6127C33.0896 17.1166 32.7266 18.3767 32.0006 19.3931C31.285 20.3991 30.2012 21.1614 28.7492 21.6799L34.163 31.8542H29.4026L24.2533 22.1622H23.8488V31.8542H19.4928V8.96989ZM23.8488 17.9151H25.2178C26.6076 17.9151 27.5617 17.7336 28.0803 17.3707C28.6092 17.0077 28.8737 16.4061 28.8737 15.566C28.8737 15.0682 28.744 14.6378 28.4848 14.2748C28.2255 13.9015 27.878 13.637 27.4424 13.4814C27.0068 13.3155 26.2083 13.2325 25.0467 13.2325H23.8488V17.9151Z" stroke="#DA0916" stroke-width="1.38525" mask="url(#path-2-outside-1_1_2424)"/>
<path d="M58.8053 12.7036L55.7406 15.7372C53.8011 13.6837 51.5402 12.6569 48.9577 12.6569C46.7071 12.6569 44.8196 13.4036 43.295 14.8971C41.7808 16.3906 41.0237 18.2055 41.0237 20.342C41.0237 22.5511 41.8119 24.4231 43.3883 25.9581C44.9648 27.493 46.9094 28.2605 49.2222 28.2605C50.726 28.2605 51.9913 27.9442 53.0181 27.3116C54.0552 26.6789 54.8901 25.6884 55.5228 24.3402H48.8955V20.2487H60.4076L60.4388 21.2132C60.4388 23.2149 59.9202 25.1128 58.8831 26.9071C57.8459 28.7013 56.5028 30.0703 54.8538 31.0141C53.2048 31.9579 51.2705 32.4298 49.0511 32.4298C46.676 32.4298 44.5551 31.9164 42.6883 30.8897C40.8318 29.8525 39.3591 28.3798 38.2701 26.4715C37.1915 24.5632 36.6522 22.5045 36.6522 20.2954C36.6522 17.2669 37.653 14.6326 39.6547 12.3924C42.0297 9.727 45.1203 8.39429 48.9266 8.39429C50.9179 8.39429 52.7795 8.76247 54.5116 9.49883C55.9739 10.1211 57.4051 11.1894 58.8053 12.7036Z" stroke="#DA0916" stroke-width="1.38525" mask="url(#path-2-outside-1_1_2424)"/>
<path d="M75.249 8.39429C78.4848 8.39429 81.2643 9.56624 83.5875 11.9102C85.9211 14.2541 87.0878 17.1114 87.0878 20.482C87.0878 23.8216 85.9366 26.6478 83.6342 28.9606C81.3421 31.2734 78.5574 32.4298 75.2801 32.4298C71.8472 32.4298 68.9951 31.2423 66.7238 28.8672C64.4525 26.4922 63.3168 23.6712 63.3168 20.4043C63.3168 18.2159 63.8457 16.2039 64.9036 14.3682C65.9615 12.5324 67.4135 11.0805 69.2596 10.0122C71.116 8.9336 73.1125 8.39429 75.249 8.39429ZM75.2023 12.6569C73.0866 12.6569 71.3079 13.3933 69.8663 14.866C68.4247 16.3387 67.7039 18.2107 67.7039 20.482C67.7039 23.0126 68.6113 25.0143 70.4263 26.487C71.8368 27.6382 73.4548 28.2139 75.2801 28.2139C77.344 28.2139 79.1019 27.4671 80.5539 25.9737C82.0059 24.4802 82.7319 22.6393 82.7319 20.4509C82.7319 18.273 82.0007 16.4321 80.5384 14.9282C79.076 13.414 77.2973 12.6569 75.2023 12.6569Z" stroke="#DA0916" stroke-width="1.38525" mask="url(#path-2-outside-1_1_2424)"/>
<path d="M103.189 12.0813L99.969 14.9282C98.8385 13.3518 97.6873 12.5636 96.5154 12.5636C95.9449 12.5636 95.4782 12.7191 95.1152 13.0303C94.7522 13.331 94.5707 13.6733 94.5707 14.057C94.5707 14.4408 94.7004 14.8038 94.9597 15.146C95.3123 15.6023 96.3753 16.5824 98.1488 18.0863C99.8082 19.476 100.814 20.3524 101.167 20.7154C102.048 21.6073 102.671 22.463 103.034 23.2823C103.407 24.0913 103.594 24.978 103.594 25.9425C103.594 27.8197 102.946 29.3703 101.649 30.5941C100.353 31.8179 98.6622 32.4298 96.5776 32.4298C94.9493 32.4298 93.5284 32.0305 92.315 31.2319C91.1119 30.4333 90.08 29.1784 89.2191 27.4671L92.875 25.258C93.9744 27.2804 95.2397 28.2916 96.6709 28.2916C97.4177 28.2916 98.0451 28.0738 98.5533 27.6382C99.0615 27.2027 99.3156 26.6996 99.3156 26.1292C99.3156 25.6107 99.1237 25.0921 98.74 24.5735C98.3563 24.055 97.511 23.2616 96.2042 22.1933C93.7151 20.1605 92.1075 18.5945 91.3816 17.4951C90.6556 16.3854 90.2926 15.2808 90.2926 14.1815C90.2926 12.5947 90.8941 11.236 92.0972 10.1056C93.3106 8.96471 94.8041 8.39429 96.5776 8.39429C97.7184 8.39429 98.8022 8.65876 99.829 9.18769C100.866 9.71663 101.986 10.6812 103.189 12.0813Z" stroke="#DA0916" stroke-width="1.38525" mask="url(#path-2-outside-1_1_2424)"/>
<path d="M105.523 8.96989H118.171V13.2636H114.001V31.8542H109.583V13.2636H105.523V8.96989Z" stroke="#DA0916" stroke-width="1.38525" mask="url(#path-2-outside-1_1_2424)"/>
<path d="M119.524 8.96989H124.207L128.469 17.184L132.701 8.96989H137.321L130.632 21.9444V31.8542H126.245V21.9444L119.524 8.96989Z" stroke="#DA0916" stroke-width="1.38525" mask="url(#path-2-outside-1_1_2424)"/>
<path d="M140.915 8.96989H145.271V27.7005H151.618V31.8542H140.915V8.96989Z" stroke="#DA0916" stroke-width="1.38525" mask="url(#path-2-outside-1_1_2424)"/>
<path d="M154.963 8.96989H167.455V13.2325H159.288V17.3707H167.455V21.5555H159.288V27.576H167.455V31.8542H154.963V8.96989Z" stroke="#DA0916" stroke-width="1.38525" mask="url(#path-2-outside-1_1_2424)"/>
<path d="M59.049 12.9497L59.2869 12.7142L59.0596 12.4685C57.6357 10.9286 56.1659 9.8264 54.6472 9.18017L54.6471 9.18013C52.8698 8.4245 50.9618 8.04798 48.9267 8.04798C45.0291 8.04798 41.8418 9.41748 39.3963 12.1619C37.3375 14.4661 36.3059 17.1827 36.3059 20.2954C36.3059 22.5637 36.8604 24.6812 37.9687 26.6419L37.9694 26.6431C39.0885 28.6043 40.606 30.1231 42.5194 31.192L42.5214 31.1931C44.4451 32.2511 46.6246 32.7761 49.0511 32.7761C51.3207 32.7761 53.3163 32.2931 55.0259 31.3147C56.7328 30.3378 58.1181 28.9226 59.1829 27.0804C60.2494 25.2354 60.7851 23.2779 60.7851 21.2132H60.7853L60.7849 21.2021L60.7538 20.2375L60.743 19.9024H60.4077H48.8955H48.5492V20.2487V24.3402V24.6865H48.8955H54.9594C54.3874 25.7327 53.678 26.5034 52.8378 27.0159L52.8365 27.0167C51.8764 27.6083 50.6777 27.9142 49.2222 27.9142C46.9946 27.9142 45.1382 27.1785 43.63 25.71C42.1208 24.2405 41.37 22.4581 41.37 20.342C41.37 18.298 42.0902 16.5721 43.5377 15.1442C44.9937 13.718 46.7925 13.0032 48.9578 13.0032C51.4355 13.0032 53.608 13.9835 55.4888 15.975L55.7323 16.2327L55.9842 15.9833L59.049 12.9497ZM70.6454 26.2187L70.6446 26.2181C68.918 24.8171 68.0502 22.9181 68.0502 20.482C68.0502 18.2912 68.7423 16.5093 70.1138 15.1082C71.4884 13.704 73.177 13.0032 75.2024 13.0032C77.2029 13.0032 78.8918 13.7218 80.2893 15.1688L80.2901 15.1696C81.687 16.6061 82.3856 18.3593 82.3856 20.4509C82.3856 22.5542 81.6914 24.307 80.3057 25.7322C78.9182 27.1593 77.2495 27.8675 75.2802 27.8675C73.5344 27.8675 71.9939 27.3194 70.6454 26.2187ZM87.4342 20.482C87.4342 17.0218 86.2325 14.076 83.833 11.6658C81.4464 9.25812 78.5791 8.04798 75.249 8.04798C73.0511 8.04798 70.9947 8.60361 69.0856 9.71277C67.1876 10.8112 65.6919 12.3067 64.6036 14.1952C63.5144 16.0853 62.9705 18.1573 62.9705 20.4043C62.9705 23.761 64.141 26.6676 66.4735 29.1066C68.8134 31.5533 71.7575 32.7761 75.2802 32.7761C78.6491 32.7761 81.5224 31.5834 83.8799 29.2047C86.2485 26.8253 87.4342 23.9107 87.4342 20.482Z" fill="#EF7F1A" stroke="#EF7F1A" stroke-width="0.692623"/>
</svg>