<svg width="32" height="50" viewBox="0 0 32 50" fill="none" xmlns="http://www.w3.org/2000/svg">
<path d="M15.9999 37.5205C10.849 37.4688 7.38449 37.2914 5.38987 36.0887C2.07094 34.0875 0.861012 27.3933 3.25099 23.9355C4.37116 22.3146 5.37576 21.0472 6.52086 19.9757C8.80419 17.8389 8.23576 12.4797 15.9999 12.4797C23.7641 12.4797 23.1957 17.8389 25.479 19.9757C26.6241 21.0472 27.6287 22.3146 28.7489 23.9355C31.1389 27.3933 29.929 34.0875 26.61 36.0887C24.6154 37.2914 21.1509 37.4688 15.9999 37.5205Z" stroke="#252536" stroke-width="1.2" stroke-miterlimit="22.926" stroke-linecap="round" stroke-linejoin="round"/>
<path d="M18.5584 28.7925C23.3404 28.3295 22.1222 26.4261 25.1342 24.6871M6.86572 24.6871C9.87768 26.4261 8.65961 28.3293 13.4411 28.7925" stroke="#252536" stroke-width="1.2" stroke-miterlimit="22.926" stroke-linecap="round" stroke-linejoin="round"/>
<path d="M8.69141 26.0391C10.9987 25.2972 13.4861 24.9143 16 24.9143C18.5124 24.9143 20.9981 25.2967 23.3043 26.0376" stroke="#252536" stroke-width="1.2" stroke-miterlimit="22.926" stroke-linecap="round" stroke-linejoin="round"/>
<path d="M19.2856 25.0447C19.4758 24.5311 19.7126 23.9875 20.126 23.4593M11.8739 23.4593C12.2872 23.9875 12.5242 24.5311 12.7142 25.0447" stroke="#252536" stroke-width="1.2" stroke-miterlimit="22.926" stroke-linecap="round" stroke-linejoin="round"/>
<path d="M15.9995 28.8984H15.9999" stroke="#252536" stroke-width="1.2" stroke-miterlimit="2.613" stroke-linecap="round" stroke-linejoin="round"/>
</svg>